<?xml version="1.0" encoding="UTF-8"?>
<!DOCTYPE svg PUBLIC "-//W3C//DTD SVG 1.0//EN" "http://www.w3.org/TR/2001/REC-SVG-20010904/DTD/svg10.dtd">
<!-- Creator: CorelDRAW 2021 (64-Bit) -->
<svg xmlns="http://www.w3.org/2000/svg" xml:space="preserve" width="120mm" height="250mm" version="1.0" style="shape-rendering:geometricPrecision; text-rendering:geometricPrecision; image-rendering:optimizeQuality; fill-rule:evenodd; clip-rule:evenodd"
viewBox="0 0 12629.81 26312.1"
 xmlns:xlink="http://www.w3.org/1999/xlink"
 xmlns:xodm="http://www.corel.com/coreldraw/odm/2003">
 <defs>
  <style type="text/css">
   <![CDATA[
    .fil2 {fill:none}
    .fil1 {fill:#E6F0FA}
    .fil0 {fill:#F2F9FF}
   ]]>
  </style>
   <clipPath id="id0">
    <path d="M-0 0l12629.81 0 0 26312.1 -12629.81 0 0 -26312.1z"/>
   </clipPath>
 </defs>
 <g id="Capa_x0020_1">
  <metadata id="CorelCorpID_0Corel-Layer"/>
  <g>
  </g>
  <g style="clip-path:url(#id0)">
   <g>
    <rect class="fil0" x="20.6" y="-66.85" width="13156.05" height="26445.8"/>
    <path class="fil1" d="M1515.79 17807.11c505.88,-75.09 695.14,-460.31 711.7,-718.67 -2.4,-137.91 -23.99,-755.07 -827.57,-794.31 -224.39,-879.59 -780.55,-849.09 -943.41,-853.75 -331.3,8.89 -806.53,144.65 -993.91,703.3 -178.42,-53.07 -318.47,-101.43 -578.45,9.96 -151.2,78.86 -359.97,232.89 -424.81,588.98 -187.5,26.24 -585.61,34 -634.46,459.3 -6.8,429.07 312.64,552.71 468.94,610.59l3221.97 -5.4z"/>
    <path class="fil1" d="M14093.36 10269.17c505.88,-75.09 695.14,-460.31 711.7,-718.67 -2.4,-137.91 -23.99,-755.07 -827.57,-794.31 -224.39,-879.59 -780.55,-849.09 -943.41,-853.75 -331.3,8.89 -806.53,144.65 -993.91,703.3 -178.42,-53.07 -318.47,-101.43 -578.45,9.96 -151.2,78.86 -359.97,232.89 -424.81,588.98 -187.5,26.24 -585.61,34 -634.46,459.3 -6.8,429.07 312.64,552.71 468.94,610.59l3221.97 -5.4z"/>
    <path class="fil1" d="M2041 4828.51c505.88,-75.09 695.14,-460.31 711.7,-718.67 -2.4,-137.91 -23.99,-755.07 -827.57,-794.31 -224.39,-879.59 -780.55,-849.09 -943.41,-853.75 -331.3,8.89 -806.53,144.65 -993.91,703.3 -178.42,-53.07 -318.47,-101.43 -578.45,9.96 -151.2,78.86 -359.97,232.89 -424.81,588.98 -187.5,26.24 -585.61,34 -634.46,459.3 -6.8,429.07 312.64,552.71 468.94,610.59l3221.97 -5.4z"/>
   </g>
  </g>
  <polygon class="fil2" points="-0,0 12629.81,0 12629.81,26312.1 -0,26312.1 "/>
 </g>
</svg>
