<?xml version="1.0" encoding="UTF-8"?>
<!DOCTYPE svg PUBLIC "-//W3C//DTD SVG 1.0//EN" "http://www.w3.org/TR/2001/REC-SVG-20010904/DTD/svg10.dtd">
<!-- Creator: CorelDRAW 2021 (64-Bit) -->
<svg xmlns="http://www.w3.org/2000/svg" xml:space="preserve" width="120mm" height="250mm" version="1.0" style="shape-rendering:geometricPrecision; text-rendering:geometricPrecision; image-rendering:optimizeQuality; fill-rule:evenodd; clip-rule:evenodd"
viewBox="0 0 14358.68 29913.91"
 xmlns:xlink="http://www.w3.org/1999/xlink"
 xmlns:xodm="http://www.corel.com/coreldraw/odm/2003">
 <defs>
  <style type="text/css">
   <![CDATA[
    .str0 {stroke:#0942AD;stroke-width:21.11;stroke-miterlimit:22.9256}
    .str3 {stroke:#0942AD;stroke-width:9.12;stroke-miterlimit:22.9256}
    .str1 {stroke:#4275BD;stroke-width:9.12;stroke-miterlimit:22.9256}
    .str2 {stroke:#EEF2AC;stroke-width:9.12;stroke-miterlimit:22.9256}
    .fil29 {fill:none}
    .fil28 {fill:#02C3E2}
    .fil24 {fill:#0942AD}
    .fil0 {fill:#0CE2DA}
    .fil20 {fill:#7BE4EA}
    .fil2 {fill:#82ABE1}
    .fil22 {fill:#95BCF5}
    .fil17 {fill:#98C2FF}
    .fil5 {fill:#98C3FE}
    .fil16 {fill:#98C3FF}
    .fil7 {fill:#99C3FD}
    .fil9 {fill:#99C3FF}
    .fil11 {fill:#AAD3FF}
    .fil4 {fill:#AAD4FE}
    .fil21 {fill:#ABD4FF}
    .fil19 {fill:#ADD4F6}
    .fil6 {fill:#ADD4FD}
    .fil14 {fill:#ADD4FF}
    .fil8 {fill:#B0D5FC}
    .fil3 {fill:#C4E5FF}
    .fil13 {fill:#C5E4FF}
    .fil15 {fill:#C6E3FF}
    .fil12 {fill:#C6E4FF}
    .fil26 {fill:#C7E1F8}
    .fil10 {fill:#E0F2FE}
    .fil23 {fill:#E6F0FA}
    .fil25 {fill:#F0FAFD}
    .fil18 {fill:#F1FAFF}
    .fil1 {fill:#F2F9FF}
    .fil27 {fill:#FFE5D4}
   ]]>
  </style>
   <clipPath id="id0">
    <path d="M-0 0l14358.68 0 0 29913.91 -14358.68 0 0 -29913.91z"/>
   </clipPath>
 </defs>
 <g id="Capa_x0020_1">
  <metadata id="CorelCorpID_0Corel-Layer"/>
  <g>
  </g>
  <g style="clip-path:url(#id0)">
   <g>
    <g id="_2764277437040">
     <rect class="fil0" x="-171.29" y="6701.42" width="15000.36" height="27702.52"/>
     <rect class="fil1" x="-211.13" y="-4490.04" width="14975.89" height="11729.47"/>
     <g>
      <rect class="fil2" x="-172.5" y="6082.61" width="14987.84" height="1176.56"/>
      <polygon class="fil3" points="14818.87,4673.99 14816.99,6113.23 -171.17,6112.64 -176.7,4672.06 1480.71,4671.54 1488.41,722.16 4677.55,740.2 4665.94,4673.1 5150.43,4674.97 5142.12,3666.86 11236.25,3658.79 11238.38,4673.4 12022.48,4671.77 12018.3,723.29 13952.37,721.94 13950.53,4673.68 "/>
      <rect class="fil4" x="1874.2" y="1651.86" width="954.78" height="302.56"/>
      <rect class="fil5" x="1956.17" y="1130.51" width="792.67" height="521.35"/>
      <rect class="fil6" x="2337.16" y="1131.72" width="36.55" height="521.17"/>
      <rect class="fil7" x="2831.98" y="4817.41" width="472.38" height="882.42"/>
      <rect class="fil8" x="2353.52" y="4524.42" width="1418.89" height="297.76"/>
      <rect class="fil9" x="574.88" y="4684.8" width="1523.97" height="1019.18"/>
      <polygon class="fil9" points="4835.08,1520.91 4839.29,3699.88 11484.48,3689.61 11484.66,2321.43 11175.91,2054.19 "/>
      <rect class="fil9" x="5429.13" y="4204.39" width="2567.72" height="1491.41"/>
      <polygon class="fil9" points="5516.68,3938.05 5238.37,4213.7 8200.65,4219.68 7928.55,3932.05 "/>
      <polygon class="fil10" points="5576.38,4214.98 5418.29,4537.14 5253.22,4214.98 "/>
      <polygon class="fil11" points="5898.93,4214.57 5740.84,4536.72 5575.76,4214.57 "/>
      <polygon class="fil10" points="6222.04,4215.72 6063.94,4537.88 5898.88,4215.72 "/>
      <polygon class="fil11" points="6544.59,4215.3 6386.49,4537.46 6221.42,4215.3 "/>
      <polygon class="fil10" points="6870.18,4216.95 6712.09,4539.11 6547.02,4216.95 "/>
      <polygon class="fil11" points="7192.73,4216.53 7034.64,4538.69 6869.56,4216.53 "/>
      <polygon class="fil10" points="7519.1,4216.95 7361.01,4539.11 7195.93,4216.95 "/>
      <polygon class="fil11" points="7841.64,4216.53 7683.55,4538.69 7518.48,4216.53 "/>
      <polygon class="fil10" points="8172.07,4216.95 8013.98,4539.11 7848.92,4216.95 "/>
      <rect class="fil9" x="8542.11" y="4303.68" width="2668.92" height="881.81"/>
      <rect class="fil12" x="9339.4" y="4315.73" width="34.99" height="856.9"/>
      <rect class="fil12" x="10254.55" y="4303.68" width="34.99" height="874.85"/>
      <rect class="fil4" x="3330.41" y="1643.9" width="954.78" height="302.56"/>
      <rect class="fil5" x="3412.37" y="1122.55" width="792.67" height="521.35"/>
      <rect class="fil6" x="3793.36" y="1123.77" width="36.55" height="521.17"/>
      <rect class="fil4" x="1874.2" y="2845.18" width="954.78" height="302.56"/>
      <rect class="fil5" x="1956.17" y="2323.83" width="792.67" height="521.35"/>
      <rect class="fil6" x="2337.16" y="2325.04" width="36.55" height="521.17"/>
      <rect class="fil4" x="3330.41" y="2837.22" width="954.78" height="302.56"/>
      <rect class="fil5" x="3412.37" y="2315.87" width="792.67" height="521.35"/>
      <rect class="fil6" x="3793.36" y="2317.09" width="36.55" height="521.17"/>
      <rect class="fil4" x="1861.72" y="3938.64" width="954.78" height="302.56"/>
      <rect class="fil5" x="1943.68" y="3417.29" width="792.67" height="521.35"/>
      <rect class="fil6" x="2324.67" y="3418.51" width="36.55" height="521.17"/>
      <rect class="fil4" x="3317.92" y="3930.69" width="954.78" height="302.56"/>
      <rect class="fil5" x="3399.89" y="3409.34" width="792.67" height="521.35"/>
      <rect class="fil6" x="3780.88" y="3410.56" width="36.55" height="521.17"/>
      <g>
       <rect class="fil9" x="12217.2" y="3209.92" width="761.02" height="787.47"/>
       <rect class="fil13" x="12575.17" y="3208.17" width="48.23" height="789.22"/>
       <rect class="fil13" x="12193.4" y="3431.74" width="802.42" height="29.52"/>
       <rect class="fil13" x="12192.16" y="3717.16" width="802.42" height="29.52"/>
      </g>
      <polygon class="fil14" points="11634.92,3670.87 11634.72,6109.82 14009.93,6104.75 14021.64,3358.77 12866.09,3361.39 12855.23,3677.35 "/>
      <polygon class="fil7" points="13489.56,3950.75 13010.65,4651.45 14815.14,4651.45 14819.24,3948.59 "/>
      <rect class="fil15" x="13355.53" y="4649.89" width="1459.85" height="1391.93"/>
      <rect class="fil16" x="13934.65" y="4811.09" width="703.86" height="612.42"/>
      <rect class="fil17" x="11984.45" y="3926.42" width="710.26" height="183.21"/>
      <rect class="fil18" x="13603.11" y="3445.96" width="330.47" height="236.69"/>
      <g>
       <rect class="fil9" x="12192.22" y="1063.15" width="761.02" height="787.47"/>
       <rect class="fil13" x="12550.18" y="1061.39" width="48.23" height="789.22"/>
       <rect class="fil13" x="12168.42" y="1284.97" width="802.42" height="29.52"/>
       <rect class="fil13" x="12167.18" y="1570.38" width="802.42" height="29.52"/>
      </g>
      <g>
       <rect class="fil9" x="12939.61" y="2129.24" width="761.02" height="787.47"/>
       <rect class="fil13" x="13297.57" y="2127.49" width="48.23" height="789.22"/>
       <rect class="fil13" x="12915.81" y="2351.06" width="802.42" height="29.52"/>
       <rect class="fil13" x="12914.57" y="2636.48" width="802.42" height="29.52"/>
      </g>
      <rect class="fil19" x="1173.56" y="1660.9" width="317.04" height="289.89"/>
      <rect class="fil19" x="1166.55" y="2843.74" width="317.04" height="300.45"/>
      <rect class="fil19" x="1164.81" y="3942.58" width="317.04" height="297.79"/>
      <rect class="fil19" x="13951.43" y="1174.59" width="317.04" height="289.89"/>
      <rect class="fil19" x="13951.43" y="2555.28" width="317.04" height="289.89"/>
      <rect class="fil20" x="8531.44" y="5453.5" width="2664.93" height="235.62"/>
      <rect class="fil21" x="-161.5" y="5700.53" width="14978" height="412.41"/>
      <rect class="fil22" x="392.07" y="6934.68" width="1556.7" height="45.56"/>
      <rect class="fil22" x="3085.72" y="6930.8" width="1556.7" height="45.56"/>
      <rect class="fil22" x="5920.03" y="6932.09" width="1556.7" height="45.56"/>
      <rect class="fil22" x="8967.95" y="6925.38" width="1556.7" height="45.56"/>
      <rect class="fil22" x="12044.24" y="6925.21" width="1556.7" height="45.56"/>
     </g>
     <path class="fil23" d="M963.96 -694.31c575.12,-85.37 790.3,-523.33 809.12,-817.04 -2.73,-156.78 -27.27,-858.43 -940.85,-903.04 -255.11,-1000 -887.4,-965.32 -1072.56,-970.62 -376.65,10.11 -916.93,164.45 -1129.97,799.57 -202.84,-60.33 -362.07,-115.31 -657.63,11.32 -171.9,89.66 -409.25,264.77 -482.97,669.6 -213.17,29.83 -665.78,38.65 -721.31,522.18 -7.73,487.8 355.44,628.37 533.14,694.17l3663.02 -6.14z"/>
     <path class="fil23" d="M16781.88 -725.82c575.12,-85.37 790.3,-523.33 809.12,-817.04 -2.73,-156.78 -27.27,-858.43 -940.85,-903.04 -255.11,-1000 -887.4,-965.32 -1072.56,-970.62 -376.65,10.11 -916.93,164.45 -1129.97,799.57 -202.84,-60.33 -362.07,-115.31 -657.63,11.32 -171.9,89.66 -409.25,264.77 -482.97,669.6 -213.17,29.83 -665.78,38.65 -721.31,522.18 -7.73,487.8 355.44,628.37 533.14,694.17l3663.02 -6.14z"/>
     <g>
      <path class="fil1 str0" d="M9586.08 5613.55c-43.53,37.3 -95.47,754.92 88.46,903.79 1321.11,-2.76 2642.22,-5.53 3963.33,-8.28 143.67,-68.53 115.92,-533.63 85.41,-629.03 -107,-96.23 -174.69,-154.33 -371.55,-215.19l-721.77 -74.5 -565.1 -1025.1 -1466.58 5.12 -457.81 1036.53 -554.38 6.65z"/>
      <ellipse class="fil24" cx="10441.45" cy="6513.51" rx="321.24" ry="311.27"/>
      <ellipse class="fil25" cx="10435.13" cy="6516.11" rx="172.52" ry="167.17"/>
      <ellipse class="fil24" cx="12627.88" cy="6511.17" rx="321.24" ry="311.27"/>
      <ellipse class="fil25" cx="12621.56" cy="6513.77" rx="172.52" ry="167.17"/>
      <polygon class="fil24" points="10655.99,4734.39 10271.75,5611.04 11302.05,5613.94 11302.05,4737.19 "/>
      <polygon class="fil24" points="11476.57,5612.73 11478.05,4735.59 12037.43,4734.34 12456.86,5609.2 "/>
      <rect class="fil26" x="9437.73" y="6187.15" width="256.44" height="178.08"/>
      <rect class="fil26" x="9495.42" y="5942.81" width="200.88" height="149.09"/>
      <rect class="fil26" x="13297.15" y="6217.9" width="564.17" height="157.38"/>
      <polygon class="fil26" points="13657.42,6099.59 13623.99,5928.06 13173.21,5928.02 13272.68,6099.64 "/>
      <rect class="fil26" x="11375.06" y="5548.58" width="19.39" height="761.2"/>
      <rect class="fil26" x="11019.44" y="5799.18" width="161.65" height="62.65"/>
      <rect class="fil26" x="11601.36" y="5814.84" width="164.87" height="40.73"/>
     </g>
     <g>
      <polygon class="fil2 str1" points="8395.4,3234.79 8396.16,5017.12 8492.39,6075.18 8184.43,6075.61 8286.07,5014.3 8286.6,3235.27 8228.93,3112.06 8452.45,3113.07 "/>
      <ellipse class="fil27 str2" cx="8338.72" cy="2952.33" rx="200.28" ry="198.14"/>
     </g>
     <path class="fil28" d="M1911.62 30586.71c563.29,-85.37 774.04,-523.33 792.47,-817.04 -2.67,-156.78 -26.71,-858.43 -921.48,-903.04 -249.85,-1000 -869.14,-965.32 -1050.48,-970.62 -368.9,10.11 -898.06,164.45 -1106.71,799.57 -198.66,-60.33 -354.61,-115.31 -644.09,11.32 -168.36,89.66 -400.82,264.77 -473.02,669.6 -208.78,29.83 -652.08,38.65 -706.46,522.18 -7.57,487.8 348.11,628.37 522.17,694.17l3587.61 -6.14z"/>
     <path class="fil28" d="M15434.39 30805.75c563.29,-85.37 774.04,-523.33 792.47,-817.04 -2.67,-156.78 -26.71,-858.43 -921.48,-903.04 -249.85,-1000 -869.14,-965.32 -1050.48,-970.62 -368.9,10.11 -898.06,164.45 -1106.71,799.57 -198.66,-60.33 -354.61,-115.31 -644.09,11.32 -168.36,89.66 -400.82,264.77 -473.02,669.6 -208.78,29.83 -652.08,38.65 -706.46,522.18 -7.57,487.8 348.11,628.37 522.17,694.17l3587.61 -6.14z"/>
     <g>
      <path class="fil1 str0" d="M2515.04 6353.57c26.98,-259.4 -115.77,-435.7 -330.64,-477.21 -262.82,-37.7 -499.05,156.04 -480.02,412.33 -118.91,-39.31 -200.36,-79.04 -228.49,-188.84 -4.74,-18.52 -7.98,-39.08 -9.61,-61.92 -3.91,-54.54 4.61,-121.12 31.84,-202.28 -5.16,-107.21 -23.75,-235.21 63.66,-345 190.96,-160.23 330.9,-313.98 576.87,-463.8 379.32,-33.19 649.95,-33.87 976.93,-42.36 250.19,1.87 361.83,-11.97 759.66,70.25 256.42,93.69 562.38,227.55 838,475.08 250.2,7.93 485.56,44.28 732.74,134.53 103.6,43.85 385.16,-22 300.48,641.65 -34.92,45.79 -247.88,114.25 -491.75,110.39 129.78,-739.05 -890.58,-725.03 -804.17,-45.66 -653.08,-5.28 -1282.4,-11.88 -1935.48,-17.17z"/>
      <path class="fil24" d="M2094.87 5538.82c99.96,-121.07 173.66,-282.57 299.88,-363.21 180.48,-43.43 354.76,-38.96 536.78,-22.53l-1.16 451.57 -835.5 -65.82z"/>
      <path class="fil24" d="M3538.68 5225.48c254.12,116.28 492.81,304.39 739.22,456.61l-1159.08 -78.75 0.71 -443.4c244.77,-9.32 327.34,29.75 419.15,65.54z"/>
      <path class="fil29 str3" d="M2519.3 6290.62c642.08,9.25 1284.14,18.5 1605.18,23.24 321.04,4.75 321.05,4.99 321.05,5.23"/>
      <path class="fil29 str3" d="M5262.8 6319.95c72.92,-3.02 145.85,-6.03 228.1,-23.84 82.26,-17.82 173.87,-50.42 265.46,-83.04"/>
      <path class="fil29 str3" d="M5236.12 6122.6c98.08,-8.04 196.16,-16.07 283.48,-33.62 87.31,-17.55 163.86,-44.62 240.4,-71.69"/>
      <path class="fil29 str3" d="M4272.44 5681.07c10.28,211.67 20.54,423.34 25.69,529.18 5.13,105.84 5.13,105.84 5.13,105.84"/>
      <path class="fil29 str3" d="M3123.8 5603.68c-38.61,-3.48 -77.21,-6.98 -91.8,108.7 -14.6,115.7 -5.18,350.57 -0.47,467.99 4.71,117.43 4.71,117.43 4.71,117.43"/>
      <path class="fil29 str3" d="M5572.26 6077c-40.87,-61.92 -81.76,-123.84 -55.59,-160.9 26.17,-37.05 119.4,-49.24 166.01,-55.33 46.62,-6.09 46.62,-6.09 46.62,-6.09"/>
      <path class="fil29 str3" d="M1538.2 5524.78c81.4,35.04 162.82,70.07 192.48,113.57 29.66,43.51 7.57,95.46 -40.62,113.84 -48.21,18.39 -122.52,3.19 -196.85,-12"/>
      <path class="fil24" d="M3972 5096.05c106.95,25.24 288.21,120.43 423.19,203.55 134.96,83.11 223.64,154.12 267.86,190.49 44.21,36.35 43.96,38.06 -10.64,59.73 -54.61,21.66 -163.56,63.29 -215.97,80.52 -52.4,17.22 -48.26,10.05 -149.99,-69.47 -101.72,-79.54 -309.3,-231.43 -408.06,-310.27 -98.79,-78.83 -88.72,-84.6 -67.37,-109.83 21.36,-25.25 54.01,-69.96 160.97,-44.72z"/>
      <g>
       <ellipse class="fil24" cx="2112.08" cy="6256.79" rx="378.95" ry="367.19"/>
       <ellipse class="fil25" cx="2111.7" cy="6261.72" rx="203.51" ry="197.19"/>
      </g>
      <g>
       <ellipse class="fil24" cx="4857.29" cy="6254.68" rx="384.29" ry="372.36"/>
       <ellipse class="fil25" cx="4856.9" cy="6259.67" rx="206.38" ry="199.97"/>
      </g>
      <path class="fil29 str3" d="M1469.69 6069.11c54,67.55 80.23,108.65 237.41,137.17"/>
     </g>
    </g>
   </g>
  </g>
  <polygon class="fil29" points="-0,0 14358.68,0 14358.68,29913.91 -0,29913.91 "/>
 </g>
</svg>
