<?xml version="1.0" encoding="UTF-8"?>
<!DOCTYPE svg PUBLIC "-//W3C//DTD SVG 1.0//EN" "http://www.w3.org/TR/2001/REC-SVG-20010904/DTD/svg10.dtd">
<!-- Creator: CorelDRAW 2021 (64-Bit) -->
<svg xmlns="http://www.w3.org/2000/svg" xml:space="preserve" width="50mm" height="50mm" version="1.0" style="shape-rendering:geometricPrecision; text-rendering:geometricPrecision; image-rendering:optimizeQuality; fill-rule:evenodd; clip-rule:evenodd"
viewBox="0 0 6611.24 6611.24"
 xmlns:xlink="http://www.w3.org/1999/xlink"
 xmlns:xodm="http://www.corel.com/coreldraw/odm/2003">
 <defs>
  <style type="text/css">
   <![CDATA[
    .str3 {stroke:#0942AD;stroke-width:23.32;stroke-miterlimit:22.9256}
    .str0 {stroke:#97C3FF;stroke-width:23.32;stroke-miterlimit:22.9256}
    .str1 {stroke:#0942AD;stroke-width:10.08;stroke-miterlimit:22.9256}
    .str2 {stroke:#EEF2AC;stroke-width:10.08;stroke-miterlimit:22.9256}
    .fil25 {fill:none}
    .fil24 {fill:#0942AD}
    .fil19 {fill:#7BE4EA}
    .fil1 {fill:#82ABE1}
    .fil21 {fill:#95BCF5}
    .fil16 {fill:#98C2FF}
    .fil4 {fill:#98C3FE}
    .fil15 {fill:#98C3FF}
    .fil6 {fill:#99C3FD}
    .fil8 {fill:#99C3FF}
    .fil10 {fill:#AAD3FF}
    .fil3 {fill:#AAD4FE}
    .fil20 {fill:#ABD4FF}
    .fil18 {fill:#ADD4F6}
    .fil5 {fill:#ADD4FD}
    .fil13 {fill:#ADD4FF}
    .fil7 {fill:#B0D5FC}
    .fil2 {fill:#C4E5FF}
    .fil12 {fill:#C5E4FF}
    .fil14 {fill:#C6E3FF}
    .fil11 {fill:#C6E4FF}
    .fil9 {fill:#E0F2FE}
    .fil26 {fill:#F0FAFD}
    .fil17 {fill:#F1FAFF}
    .fil23 {fill:#F2F9FF}
    .fil22 {fill:#FFE5D4}
    .fil0 {fill:white}
    .fil27 {fill:#FEFEFE;fill-rule:nonzero}
   ]]>
  </style>
   <clipPath id="id0">
    <path d="M-0 0l6611.24 0 0 6611.24 -6611.24 0 0 -6611.24z"/>
   </clipPath>
 </defs>
 <g id="Capa_x0020_1">
  <metadata id="CorelCorpID_0Corel-Layer"/>
  <g>
  </g>
  <g style="clip-path:url(#id0)">
   <g>
    <rect class="fil0 str0" x="-1249.39" y="-1828.03" width="8619.38" height="8764.24"/>
    <g id="_2764277424800">
     <rect class="fil1" x="-5946.07" y="5456.46" width="16562.23" height="1300.15"/>
     <polygon class="fil2" points="10620.05,3899.88 10617.98,5490.3 -5944.6,5489.65 -5950.71,3897.75 -4119.2,3897.17 -4110.7,-467.07 -586.55,-447.13 -599.39,3898.9 -64,3900.96 -73.19,2786.95 6661.1,2778.04 6663.45,3899.23 7529.92,3897.43 7525.29,-465.81 9662.54,-467.31 9660.5,3899.53 "/>
     <rect class="fil3" x="-3684.38" y="560.29" width="1055.07" height="334.34"/>
     <rect class="fil4" x="-3593.8" y="-15.83" width="875.94" height="576.12"/>
     <rect class="fil5" x="-3172.79" y="-14.48" width="40.39" height="575.91"/>
     <rect class="fil6" x="-2625.99" y="4058.36" width="522" height="975.12"/>
     <rect class="fil7" x="-3154.7" y="3734.6" width="1567.94" height="329.03"/>
     <rect class="fil8" x="-5120.19" y="3911.83" width="1684.06" height="1126.24"/>
     <polygon class="fil8" points="-412.48,415.58 -407.82,2823.45 6935.4,2812.09 6935.6,1300.19 6594.42,1004.88 "/>
     <rect class="fil8" x="243.97" y="3380.95" width="2837.44" height="1648.07"/>
     <polygon class="fil8" points="340.72,3086.63 33.18,3391.23 3306.62,3397.85 3005.94,3080 "/>
     <polygon class="fil9" points="406.7,3392.65 232,3748.65 49.58,3392.65 "/>
     <polygon class="fil10" points="763.12,3392.2 588.43,3748.19 406.01,3392.2 "/>
     <polygon class="fil9" points="1120.18,3393.47 945.47,3749.47 763.07,3393.47 "/>
     <polygon class="fil10" points="1476.61,3393.01 1301.9,3749.01 1119.49,3393.01 "/>
     <polygon class="fil9" points="1836.4,3394.83 1661.71,3750.83 1479.29,3394.83 "/>
     <polygon class="fil10" points="2192.83,3394.37 2018.13,3750.37 1835.72,3394.37 "/>
     <polygon class="fil9" points="2553.48,3394.83 2378.79,3750.83 2196.37,3394.83 "/>
     <polygon class="fil10" points="2909.91,3394.37 2735.21,3750.37 2552.8,3394.37 "/>
     <polygon class="fil9" points="3275.05,3394.83 3100.35,3750.83 2917.95,3394.83 "/>
     <rect class="fil8" x="3683.95" y="3490.67" width="2949.27" height="974.44"/>
     <rect class="fil11" x="4565" y="3503.98" width="38.67" height="946.91"/>
     <rect class="fil11" x="5576.28" y="3490.67" width="38.67" height="966.75"/>
     <rect class="fil3" x="-2075.2" y="551.5" width="1055.07" height="334.34"/>
     <rect class="fil4" x="-1984.63" y="-24.62" width="875.94" height="576.12"/>
     <rect class="fil5" x="-1563.62" y="-23.27" width="40.39" height="575.91"/>
     <rect class="fil3" x="-3684.38" y="1878.96" width="1055.07" height="334.34"/>
     <rect class="fil4" x="-3593.8" y="1302.84" width="875.94" height="576.12"/>
     <rect class="fil5" x="-3172.79" y="1304.19" width="40.39" height="575.91"/>
     <rect class="fil3" x="-2075.2" y="1870.17" width="1055.07" height="334.34"/>
     <rect class="fil4" x="-1984.63" y="1294.05" width="875.94" height="576.12"/>
     <rect class="fil5" x="-1563.62" y="1295.4" width="40.39" height="575.91"/>
     <rect class="fil3" x="-3698.17" y="3087.29" width="1055.07" height="334.34"/>
     <rect class="fil4" x="-3607.6" y="2511.17" width="875.94" height="576.12"/>
     <rect class="fil5" x="-3186.59" y="2512.52" width="40.39" height="575.91"/>
     <rect class="fil3" x="-2089" y="3078.5" width="1055.07" height="334.34"/>
     <rect class="fil4" x="-1998.43" y="2502.38" width="875.94" height="576.12"/>
     <rect class="fil5" x="-1577.41" y="2503.73" width="40.39" height="575.91"/>
     <g>
      <rect class="fil8" x="7745.09" y="2282.02" width="840.96" height="870.19"/>
      <rect class="fil12" x="8140.66" y="2280.09" width="53.29" height="872.12"/>
      <rect class="fil12" x="7718.8" y="2527.14" width="886.71" height="32.62"/>
      <rect class="fil12" x="7717.42" y="2842.53" width="886.71" height="32.62"/>
     </g>
     <polygon class="fil13" points="7101.65,2791.38 7101.42,5486.53 9726.14,5480.93 9739.08,2446.5 8462.15,2449.4 8450.14,2798.55 "/>
     <polygon class="fil6" points="9151.1,3100.67 8621.89,3874.97 10615.93,3874.97 10620.46,3098.28 "/>
     <rect class="fil14" x="9003" y="3873.24" width="1613.2" height="1538.15"/>
     <rect class="fil15" x="9642.95" y="4051.38" width="777.79" height="676.75"/>
     <rect class="fil16" x="7487.89" y="3073.78" width="784.87" height="202.45"/>
     <rect class="fil17" x="9276.58" y="2542.85" width="365.19" height="261.55"/>
     <g>
      <rect class="fil8" x="7717.48" y="-90.26" width="840.96" height="870.19"/>
      <rect class="fil12" x="8113.05" y="-92.2" width="53.29" height="872.12"/>
      <rect class="fil12" x="7691.19" y="154.86" width="886.71" height="32.62"/>
      <rect class="fil12" x="7689.81" y="470.25" width="886.71" height="32.62"/>
     </g>
     <g>
      <rect class="fil8" x="8543.38" y="1087.82" width="840.96" height="870.19"/>
      <rect class="fil12" x="8938.95" y="1085.89" width="53.29" height="872.12"/>
      <rect class="fil12" x="8517.09" y="1332.94" width="886.71" height="32.62"/>
      <rect class="fil12" x="8515.71" y="1648.34" width="886.71" height="32.62"/>
     </g>
     <rect class="fil18" x="-4458.62" y="570.28" width="350.34" height="320.34"/>
     <rect class="fil18" x="-4466.37" y="1877.38" width="350.34" height="332.01"/>
     <rect class="fil18" x="-4468.29" y="3091.64" width="350.34" height="329.07"/>
     <rect class="fil18" x="9661.49" y="32.88" width="350.34" height="320.34"/>
     <rect class="fil18" x="9661.49" y="1558.61" width="350.34" height="320.34"/>
     <rect class="fil19" x="3672.17" y="4761.27" width="2944.87" height="260.37"/>
     <rect class="fil20" x="-5933.92" y="5034.25" width="16551.35" height="455.73"/>
     <rect class="fil21" x="-5322.19" y="6398.04" width="1720.22" height="50.35"/>
     <rect class="fil21" x="-2345.6" y="6393.76" width="1720.22" height="50.35"/>
     <rect class="fil21" x="786.44" y="6395.18" width="1720.22" height="50.35"/>
     <rect class="fil21" x="4154.53" y="6387.77" width="1720.22" height="50.35"/>
     <rect class="fil21" x="7553.97" y="6387.57" width="1720.22" height="50.35"/>
    </g>
    <g id="_2764277421728">
     <polygon class="fil1 str1" points="6047.35,2324.38 6048.2,4293.93 6154.53,5463.13 5814.23,5463.61 5926.54,4290.81 5927.12,2324.91 5863.4,2188.76 6110.4,2189.87 "/>
     <ellipse class="fil22 str2" cx="5984.72" cy="2012.24" rx="221.31" ry="218.95"/>
    </g>
    <g id="_2764277423744">
     <path class="fil23 str3" d="M1300.47 5807.73c29.82,-286.65 -127.93,-481.47 -365.38,-527.34 -290.43,-41.66 -551.47,172.43 -530.45,455.65 -131.4,-43.44 -221.41,-87.35 -252.5,-208.68 -5.24,-20.47 -8.82,-43.18 -10.62,-68.43 -4.32,-60.27 5.09,-133.84 35.19,-223.53 -5.7,-118.47 -26.25,-259.91 70.34,-381.24 211.02,-177.06 365.65,-346.96 637.47,-512.52 419.17,-36.68 718.22,-37.43 1079.55,-46.81 276.47,2.06 399.83,-13.22 839.46,77.63 283.36,103.53 621.46,251.45 926.02,524.99 276.48,8.77 536.57,48.94 809.7,148.66 114.48,48.46 425.62,-24.32 332.04,709.06 -38.58,50.6 -273.92,126.25 -543.4,121.99 143.41,-816.69 -984.14,-801.19 -888.64,-50.46 -721.68,-5.83 -1417.11,-13.13 -2138.79,-18.97z"/>
     <path class="fil24" d="M836.16 4907.4c110.46,-133.79 191.9,-312.25 331.38,-401.37 199.43,-48 392.02,-43.05 593.16,-24.9l-1.28 499 -923.26 -72.74z"/>
     <path class="fil24" d="M2431.64 4561.15c280.82,128.5 544.58,336.37 816.87,504.57l-1280.83 -87.02 0.78 -489.97c270.48,-10.3 361.73,32.87 463.18,72.42z"/>
     <path class="fil25 str1" d="M1305.18 5738.17c709.53,10.22 1419.04,20.44 1773.8,25.68 354.76,5.25 354.77,5.51 354.77,5.78"/>
     <path class="fil25 str1" d="M4336.87 5770.58c80.58,-3.33 161.17,-6.66 252.06,-26.34 90.9,-19.69 192.14,-55.72 293.34,-91.76"/>
     <path class="fil25 str1" d="M4307.38 5552.5c108.38,-8.89 216.77,-17.76 313.25,-37.16 96.48,-19.4 181.07,-49.31 265.65,-79.22"/>
     <path class="fil25 str1" d="M3242.47 5064.59c11.36,233.91 22.7,467.81 28.39,584.76 5.67,116.95 5.67,116.95 5.67,116.95"/>
     <path class="fil25 str1" d="M1973.18 4979.07c-42.67,-3.85 -85.32,-7.71 -101.44,120.11 -16.13,127.85 -5.73,387.39 -0.52,517.14 5.21,129.77 5.21,129.77 5.21,129.77"/>
     <path class="fil25 str1" d="M4678.83 5502.11c-45.17,-68.43 -90.35,-136.85 -61.43,-177.8 28.92,-40.94 131.95,-54.41 183.45,-61.14 51.51,-6.73 51.51,-6.73 51.51,-6.73"/>
     <path class="fil25 str1" d="M221.01 4891.88c89.95,38.72 179.92,77.43 212.7,125.49 32.78,48.08 8.37,105.49 -44.89,125.8 -53.27,20.32 -135.38,3.53 -217.52,-13.26"/>
     <path class="fil24" d="M2910.48 4418.12c118.18,27.89 318.49,133.08 467.64,224.93 149.14,91.84 247.13,170.31 296,210.5 48.86,40.17 48.58,42.06 -11.75,66.01 -60.35,23.93 -180.74,69.93 -238.65,88.97 -57.9,19.03 -53.33,11.11 -165.74,-76.77 -112.4,-87.89 -341.79,-255.74 -450.93,-342.86 -109.16,-87.11 -98.04,-93.48 -74.44,-121.37 23.6,-27.9 59.69,-77.31 177.88,-49.41z"/>
     <g>
      <ellipse class="fil24" cx="855.18" cy="5700.79" rx="418.75" ry="405.76"/>
      <ellipse class="fil26" cx="854.76" cy="5706.23" rx="224.89" ry="217.91"/>
     </g>
     <g>
      <ellipse class="fil24" cx="3888.75" cy="5698.46" rx="424.66" ry="411.48"/>
      <ellipse class="fil26" cx="3888.33" cy="5703.98" rx="228.06" ry="220.98"/>
     </g>
     <path class="fil25 str1" d="M145.32 5493.4c59.67,74.64 88.66,120.06 262.35,151.58"/>
    </g>
    <g id="_2764277423408">
     <path class="fil20" d="M1190.54 869.59c463.3,0 838.89,363.92 838.89,812.85 0,448.93 -375.58,812.85 -838.89,812.85 -463.3,0 -838.89,-363.92 -838.89,-812.85 0,-448.93 375.58,-812.85 838.89,-812.85z"/>
     <path class="fil27 str3" d="M563.83 1803.23l139.5 -13.42c8.4,45.21 25.22,78.28 50.77,99.53 25.56,21.25 60.02,31.79 103.39,31.79 45.82,0 80.45,-9.43 103.69,-28.27 23.25,-18.86 34.96,-40.9 34.96,-66.14 0,-16.3 -4.96,-30.04 -14.69,-41.55 -9.71,-11.33 -26.87,-21.25 -51.26,-29.55 -16.65,-5.75 -54.57,-15.66 -113.92,-30.03 -76.33,-18.54 -129.92,-41.23 -160.76,-68.21 -43.36,-37.87 -64.95,-84.04 -64.95,-138.52 0,-34.99 10.22,-67.9 30.5,-98.4 20.44,-30.52 49.78,-53.68 88.21,-69.66 38.41,-15.97 84.57,-23.96 138.98,-23.96 88.54,0 155.3,19 199.99,57.19 44.84,38.19 68.25,88.99 70.57,152.73l-143.45 4.79c-6.1,-35.46 -19.12,-60.86 -39.07,-76.36 -19.94,-15.5 -49.95,-23.32 -89.85,-23.32 -41.21,0 -73.54,8.3 -96.79,24.92 -15.01,10.7 -22.58,24.91 -22.58,42.81 0,16.29 7.09,30.19 21.26,41.69 17.98,14.86 61.67,30.2 131.09,46.17 69.4,15.81 120.68,32.42 153.82,49.36 33.31,17.1 59.36,40.26 78.14,69.81 18.8,29.55 28.2,65.98 28.2,109.27 0,39.31 -11.21,76.2 -33.81,110.55 -22.58,34.35 -54.4,59.91 -95.61,76.53 -41.23,16.77 -92.66,25.07 -154.16,25.07 -89.53,0 -158.27,-19.97 -206.26,-60.06 -47.98,-39.95 -76.51,-98.26 -85.91,-174.77zm1150.5 -30.68l138.49 41.21c-21.27,75.57 -56.71,131.64 -106.19,168.39 -49.47,36.57 -112.11,54.95 -188.12,54.95 -94.14,0 -171.47,-31.15 -232.15,-93.46 -60.51,-62.3 -90.84,-147.46 -90.84,-255.62 0,-114.22 30.49,-203.04 91.34,-266.31 60.84,-63.26 140.96,-94.88 240.21,-94.88 86.74,0 157.14,24.91 211.22,74.6 32.32,29.39 56.38,71.57 72.54,126.68l-141.47 32.59c-8.41,-35.46 -25.89,-63.59 -52.43,-84.19 -26.71,-20.61 -59.03,-30.83 -96.95,-30.83 -52.59,0 -95.29,18.21 -127.94,54.79 -32.8,36.43 -49.12,95.53 -49.12,177.33 0,86.59 16.16,148.41 48.3,185.15 32.32,36.9 74.19,55.28 125.79,55.28 38.09,0 70.91,-11.66 98.27,-35.15 27.37,-23.48 47.16,-60.23 59.04,-110.55z"/>
    </g>
   </g>
  </g>
  <polygon class="fil25" points="-0,0 6611.24,0 6611.24,6611.24 -0,6611.24 "/>
 </g>
</svg>
