<?xml version="1.0" encoding="UTF-8"?>
<!DOCTYPE svg PUBLIC "-//W3C//DTD SVG 1.0//EN" "http://www.w3.org/TR/2001/REC-SVG-20010904/DTD/svg10.dtd">
<!-- Creator: CorelDRAW 2021 (64-Bit) -->
<svg xmlns="http://www.w3.org/2000/svg" xml:space="preserve" width="120mm" height="250mm" version="1.0" style="shape-rendering:geometricPrecision; text-rendering:geometricPrecision; image-rendering:optimizeQuality; fill-rule:evenodd; clip-rule:evenodd"
viewBox="0 0 12762.52 26588.58"
 xmlns:xlink="http://www.w3.org/1999/xlink"
 xmlns:xodm="http://www.corel.com/coreldraw/odm/2003">
 <defs>
  <style type="text/css">
   <![CDATA[
    .str0 {stroke:#0942AD;stroke-width:18.76;stroke-miterlimit:22.9256}
    .str3 {stroke:#0942AD;stroke-width:8.1;stroke-miterlimit:22.9256}
    .str1 {stroke:#4275BD;stroke-width:8.1;stroke-miterlimit:22.9256}
    .str2 {stroke:#EEF2AC;stroke-width:8.1;stroke-miterlimit:22.9256}
    .fil28 {fill:none}
    .fil25 {fill:#0942AD}
    .fil20 {fill:#7BE4EA}
    .fil2 {fill:#82ABE1}
    .fil22 {fill:#95BCF5}
    .fil17 {fill:#98C2FF}
    .fil5 {fill:#98C3FE}
    .fil16 {fill:#98C3FF}
    .fil7 {fill:#99C3FD}
    .fil9 {fill:#99C3FF}
    .fil11 {fill:#AAD3FF}
    .fil4 {fill:#AAD4FE}
    .fil21 {fill:#ABD4FF}
    .fil19 {fill:#ADD4F6}
    .fil6 {fill:#ADD4FD}
    .fil14 {fill:#ADD4FF}
    .fil8 {fill:#B0D5FC}
    .fil3 {fill:#C4E5FF}
    .fil13 {fill:#C5E4FF}
    .fil15 {fill:#C6E3FF}
    .fil12 {fill:#C6E4FF}
    .fil27 {fill:#C7E1F8}
    .fil10 {fill:#E0F2FE}
    .fil1 {fill:#E6F0FA}
    .fil26 {fill:#F0FAFD}
    .fil18 {fill:#F1FAFF}
    .fil0 {fill:#F2F9FF}
    .fil24 {fill:#FFE5D4}
    .fil23 {fill:#FEFEFE;fill-rule:nonzero}
   ]]>
  </style>
   <clipPath id="id0">
    <path d="M-0 0l12762.52 0 0 26588.58 -12762.52 0 0 -26588.58z"/>
   </clipPath>
 </defs>
 <g id="Capa_x0020_1">
  <metadata id="CorelCorpID_0Corel-Layer"/>
  <g>
  </g>
  <g style="clip-path:url(#id0)">
   <g>
    <rect class="fil0" x="-278.4" y="-8.14" width="13294.29" height="26723.69"/>
    <path class="fil1" d="M1232.5 18053.65c511.19,-75.88 702.45,-465.15 719.18,-726.22 -2.42,-139.36 -24.24,-763.01 -836.26,-802.66 -226.75,-888.83 -788.76,-858.01 -953.33,-862.72 -334.78,8.99 -815,146.17 -1004.36,710.69 -180.29,-53.62 -321.82,-102.49 -584.52,10.06 -152.79,79.69 -363.75,235.34 -429.28,595.17 -189.47,26.51 -591.77,34.35 -641.13,464.13 -6.87,433.57 315.93,558.52 473.87,617l3255.82 -5.46z"/>
    <path class="fil1" d="M13942.23 10436.5c511.19,-75.88 702.45,-465.15 719.18,-726.22 -2.42,-139.36 -24.24,-763.01 -836.26,-802.66 -226.75,-888.83 -788.76,-858.01 -953.33,-862.72 -334.78,8.99 -815,146.17 -1004.36,710.69 -180.29,-53.62 -321.82,-102.49 -584.52,10.06 -152.79,79.69 -363.75,235.34 -429.28,595.17 -189.47,26.51 -591.77,34.35 -641.13,464.13 -6.87,433.57 315.93,558.52 473.87,617l3255.82 -5.46z"/>
    <path class="fil1" d="M1763.23 4938.67c511.19,-75.88 702.45,-465.15 719.18,-726.22 -2.42,-139.36 -24.24,-763.01 -836.26,-802.66 -226.75,-888.83 -788.76,-858.01 -953.33,-862.72 -334.78,8.99 -815,146.17 -1004.36,710.69 -180.29,-53.62 -321.82,-102.49 -584.52,10.06 -152.79,79.69 -363.75,235.34 -429.28,595.17 -189.47,26.51 -591.77,34.35 -641.13,464.13 -6.87,433.57 315.93,558.52 473.87,617l3255.82 -5.46z"/>
    <g id="_2764264545504">
     <rect class="fil2" x="-303.44" y="25616.36" width="13321.75" height="1045.77"/>
     <polygon class="fil3" points="13021.44,24364.33 13019.77,25643.58 -302.26,25643.06 -307.17,24362.62 1165.99,24362.15 1172.83,20851.8 4007.46,20867.83 3997.14,24363.54 4427.77,24365.2 4420.38,23469.15 9837.07,23461.99 9838.97,24363.81 10535.91,24362.36 10532.18,20852.81 12251.26,20851.6 12249.62,24364.05 "/>
     <rect class="fil4" x="1515.74" y="21678.15" width="848.64" height="268.93"/>
     <rect class="fil5" x="1588.59" y="21214.75" width="704.56" height="463.4"/>
     <rect class="fil6" x="1927.23" y="21215.83" width="32.49" height="463.23"/>
     <rect class="fil7" x="2367.05" y="24491.8" width="419.87" height="784.33"/>
     <rect class="fil8" x="1941.78" y="24231.39" width="1261.16" height="264.66"/>
     <rect class="fil9" x="360.85" y="24373.94" width="1354.56" height="905.89"/>
     <polygon class="fil9" points="4147.48,21561.75 4151.22,23498.51 10057.7,23489.37 10057.86,22273.28 9783.44,22035.75 "/>
     <rect class="fil9" x="4675.49" y="23946.93" width="2282.28" height="1325.62"/>
     <polygon class="fil9" points="4753.3,23710.2 4505.93,23955.2 7138.92,23960.52 6897.07,23704.87 "/>
     <polygon class="fil10" points="4806.37,23956.34 4665.86,24242.69 4519.13,23956.34 "/>
     <polygon class="fil11" points="5093.06,23955.98 4952.55,24242.32 4805.82,23955.98 "/>
     <polygon class="fil10" points="5380.26,23957 5239.74,24243.35 5093.02,23957 "/>
     <polygon class="fil11" points="5666.95,23956.63 5526.43,24242.98 5379.71,23956.63 "/>
     <polygon class="fil10" points="5956.35,23958.1 5815.84,24244.44 5669.11,23958.1 "/>
     <polygon class="fil11" points="6243.04,23957.72 6102.53,24244.07 5955.8,23957.72 "/>
     <polygon class="fil10" points="6533.13,23958.1 6392.62,24244.44 6245.89,23958.1 "/>
     <polygon class="fil11" points="6819.82,23957.72 6679.31,24244.07 6532.58,23957.72 "/>
     <polygon class="fil10" points="7113.52,23958.1 6973,24244.44 6826.29,23958.1 "/>
     <rect class="fil9" x="7442.42" y="24035.18" width="2372.23" height="783.78"/>
     <rect class="fil12" x="8151.09" y="24045.89" width="31.1" height="761.64"/>
     <rect class="fil12" x="8964.51" y="24035.18" width="31.1" height="777.6"/>
     <rect class="fil4" x="2810.07" y="21671.08" width="848.64" height="268.93"/>
     <rect class="fil5" x="2882.92" y="21207.68" width="704.56" height="463.4"/>
     <rect class="fil6" x="3221.56" y="21208.76" width="32.49" height="463.23"/>
     <rect class="fil4" x="1515.74" y="22738.81" width="848.64" height="268.93"/>
     <rect class="fil5" x="1588.59" y="22275.42" width="704.56" height="463.4"/>
     <rect class="fil6" x="1927.23" y="22276.5" width="32.49" height="463.23"/>
     <rect class="fil4" x="2810.07" y="22731.74" width="848.64" height="268.93"/>
     <rect class="fil5" x="2882.92" y="22268.35" width="704.56" height="463.4"/>
     <rect class="fil6" x="3221.56" y="22269.43" width="32.49" height="463.23"/>
     <rect class="fil4" x="1504.64" y="23710.73" width="848.64" height="268.93"/>
     <rect class="fil5" x="1577.5" y="23247.33" width="704.56" height="463.4"/>
     <rect class="fil6" x="1916.13" y="23248.41" width="32.49" height="463.23"/>
     <rect class="fil4" x="2798.97" y="23703.66" width="848.64" height="268.93"/>
     <rect class="fil5" x="2871.83" y="23240.26" width="704.56" height="463.4"/>
     <rect class="fil6" x="3210.46" y="23241.34" width="32.49" height="463.23"/>
     <g>
      <rect class="fil9" x="10708.98" y="23063.01" width="676.42" height="699.94"/>
      <rect class="fil13" x="11027.15" y="23061.46" width="42.87" height="701.49"/>
      <rect class="fil13" x="10687.82" y="23260.18" width="713.22" height="26.24"/>
      <rect class="fil13" x="10686.72" y="23513.86" width="713.22" height="26.24"/>
     </g>
     <polygon class="fil14" points="10191.42,23472.72 10191.24,25640.55 12302.42,25636.04 12312.83,23195.31 11285.74,23197.64 11276.08,23478.48 "/>
     <polygon class="fil7" points="11839.89,23721.49 11414.22,24344.29 13018.12,24344.29 13021.77,23719.56 "/>
     <rect class="fil15" x="11720.77" y="24342.9" width="1297.57" height="1237.2"/>
     <rect class="fil16" x="12235.51" y="24486.19" width="625.61" height="544.34"/>
     <rect class="fil17" x="10502.1" y="23699.86" width="631.31" height="162.84"/>
     <rect class="fil18" x="11940.82" y="23272.81" width="293.74" height="210.38"/>
     <g>
      <rect class="fil9" x="10686.77" y="21154.88" width="676.42" height="699.94"/>
      <rect class="fil13" x="11004.94" y="21153.32" width="42.87" height="701.49"/>
      <rect class="fil13" x="10665.62" y="21352.04" width="713.22" height="26.24"/>
      <rect class="fil13" x="10664.51" y="21605.72" width="713.22" height="26.24"/>
     </g>
     <g>
      <rect class="fil9" x="11351.08" y="22102.47" width="676.42" height="699.94"/>
      <rect class="fil13" x="11669.25" y="22100.91" width="42.87" height="701.49"/>
      <rect class="fil13" x="11329.93" y="22299.63" width="713.22" height="26.24"/>
      <rect class="fil13" x="11328.82" y="22553.31" width="713.22" height="26.24"/>
     </g>
     <rect class="fil19" x="892.99" y="21686.18" width="281.79" height="257.66"/>
     <rect class="fil19" x="886.75" y="22737.54" width="281.79" height="267.05"/>
     <rect class="fil19" x="885.2" y="23714.23" width="281.79" height="264.69"/>
     <rect class="fil19" x="12250.42" y="21253.93" width="281.79" height="257.66"/>
     <rect class="fil19" x="12250.42" y="22481.15" width="281.79" height="257.66"/>
     <rect class="fil20" x="7432.94" y="25057.19" width="2368.69" height="209.43"/>
     <rect class="fil21" x="-293.67" y="25276.76" width="13312.99" height="366.57"/>
     <rect class="fil22" x="198.37" y="26373.71" width="1383.65" height="40.5"/>
     <rect class="fil22" x="2592.58" y="26370.27" width="1383.65" height="40.5"/>
     <rect class="fil22" x="5111.82" y="26371.41" width="1383.65" height="40.5"/>
     <rect class="fil22" x="7820.92" y="26365.45" width="1383.65" height="40.5"/>
     <rect class="fil22" x="10555.24" y="26365.29" width="1383.65" height="40.5"/>
    </g>
    <g id="_2764264537680">
     <path class="fil21" d="M5321.6 21932c372.65,0 674.75,292.72 674.75,653.81 0,361.09 -302.1,653.81 -674.75,653.81 -372.65,0 -674.75,-292.72 -674.75,-653.81 0,-361.09 302.1,-653.81 674.75,-653.81z"/>
     <path class="fil23 str0" d="M4817.51 22682.97l112.2 -10.79c6.75,36.36 20.28,62.96 40.84,80.05 20.56,17.09 48.27,25.57 83.16,25.57 36.85,0 64.71,-7.58 83.4,-22.74 18.7,-15.17 28.12,-32.9 28.12,-53.2 0,-13.11 -3.99,-24.16 -11.82,-33.42 -7.81,-9.11 -21.61,-17.09 -41.23,-23.77 -13.39,-4.63 -43.89,-12.59 -91.63,-24.15 -61.4,-14.91 -104.5,-33.16 -129.31,-54.87 -34.87,-30.46 -52.24,-67.6 -52.24,-111.42 0,-28.14 8.22,-54.61 24.54,-79.15 16.44,-24.55 40.04,-43.18 70.95,-56.03 30.9,-12.85 68.02,-19.27 111.79,-19.27 71.21,0 124.91,15.28 160.86,46 36.06,30.72 54.9,71.58 56.76,122.85l-115.38 3.85c-4.9,-28.52 -15.38,-48.95 -31.43,-61.42 -16.04,-12.46 -40.18,-18.76 -72.27,-18.76 -33.15,0 -59.15,6.68 -77.85,20.05 -12.07,8.6 -18.17,20.04 -18.17,34.44 0,13.1 5.7,24.28 17.1,33.53 14.46,11.95 49.6,24.29 105.44,37.14 55.83,12.72 97.07,26.08 123.72,39.7 26.79,13.75 47.74,32.38 62.86,56.16 15.12,23.77 22.69,53.07 22.69,87.89 0,31.62 -9.02,61.29 -27.19,88.92 -18.17,27.63 -43.75,48.19 -76.9,61.56 -33.16,13.49 -74.53,20.16 -124,20.16 -72.01,0 -127.31,-16.06 -165.9,-48.31 -38.6,-32.13 -61.54,-79.03 -69.1,-140.58zm925.4 -24.67l111.4 33.15c-17.11,60.78 -45.62,105.89 -85.41,135.44 -39.79,29.42 -90.18,44.2 -151.31,44.2 -75.72,0 -137.92,-25.06 -186.73,-75.17 -48.67,-50.11 -73.07,-118.61 -73.07,-205.6 0,-91.87 24.53,-163.32 73.47,-214.21 48.93,-50.88 113.38,-76.32 193.21,-76.32 69.77,0 126.39,20.04 169.89,60.01 25.99,23.64 45.35,57.57 58.35,101.9l-113.79 26.22c-6.76,-28.52 -20.82,-51.15 -42.17,-67.72 -21.48,-16.58 -47.48,-24.8 -77.98,-24.8 -42.3,0 -76.65,14.64 -102.91,44.07 -26.39,29.3 -39.51,76.84 -39.51,142.63 0,69.65 13,119.37 38.85,148.93 25.99,29.68 59.68,44.47 101.17,44.47 30.64,0 57.04,-9.38 79.04,-28.27 22.02,-18.89 37.94,-48.44 47.49,-88.92z"/>
    </g>
    <g id="_2764264531440">
     <polygon class="fil2 str1" points="7562.55,22997.7 7563.23,24581.9 7648.76,25522.33 7375.03,25522.72 7465.37,24579.39 7465.84,22998.12 7414.59,22888.61 7613.26,22889.5 "/>
     <ellipse class="fil24 str2" cx="7512.17" cy="22746.63" rx="178.01" ry="176.11"/>
    </g>
    <g id="_2764264513488">
     <path class="fil0 str0" d="M8010.37 24946.79c-38.69,33.15 -84.86,671 78.63,803.33 1174.25,-2.46 2348.51,-4.91 3522.75,-7.36 127.7,-60.91 103.04,-474.31 75.92,-559.1 -95.1,-85.53 -155.27,-137.18 -330.25,-191.27l-641.54 -66.22 -502.28 -911.15 -1303.55 4.55 -406.92 921.3 -492.75 5.91z"/>
     <ellipse class="fil25" cx="8770.66" cy="25746.7" rx="285.53" ry="276.67"/>
     <ellipse class="fil26" cx="8765.04" cy="25749.02" rx="153.34" ry="148.58"/>
     <ellipse class="fil25" cx="10714.04" cy="25744.63" rx="285.53" ry="276.67"/>
     <ellipse class="fil26" cx="10708.42" cy="25746.94" rx="153.34" ry="148.58"/>
     <polygon class="fil25" points="8961.35,24165.36 8619.83,24944.55 9535.59,24947.14 9535.59,24167.85 "/>
     <polygon class="fil25" points="9690.71,24946.06 9692.03,24166.42 10189.22,24165.32 10562.03,24942.93 "/>
     <rect class="fil27" x="7878.51" y="25456.63" width="227.93" height="158.29"/>
     <rect class="fil27" x="7929.8" y="25239.45" width="178.55" height="132.52"/>
     <rect class="fil27" x="11308.91" y="25483.96" width="501.46" height="139.88"/>
     <polygon class="fil27" points="11629.13,25378.8 11599.42,25226.34 11198.75,25226.3 11287.16,25378.84 "/>
     <rect class="fil27" x="9600.48" y="24889.04" width="17.23" height="676.58"/>
     <rect class="fil27" x="9284.39" y="25111.78" width="143.68" height="55.69"/>
     <rect class="fil27" x="9801.63" y="25125.7" width="146.54" height="36.2"/>
    </g>
    <g id="_2764264513248">
     <path class="fil0 str0" d="M2828.63 25858.5c23.98,-230.57 -102.9,-387.27 -293.89,-424.16 -233.61,-33.51 -443.57,138.7 -426.66,366.5 -105.69,-34.94 -178.09,-70.26 -203.09,-167.85 -4.21,-16.46 -7.09,-34.74 -8.54,-55.04 -3.48,-48.48 4.09,-107.65 28.3,-179.79 -4.58,-95.29 -21.11,-209.06 56.58,-306.65 169.73,-142.42 294.11,-279.07 512.74,-412.24 337.15,-29.5 577.7,-30.11 868.33,-37.65 222.38,1.66 321.6,-10.64 675.21,62.44 227.92,83.28 499.87,202.25 744.84,422.27 222.39,7.05 431.59,39.36 651.28,119.57 92.08,38.98 342.34,-19.56 267.08,570.33 -31.03,40.7 -220.32,101.55 -437.08,98.12 115.35,-656.9 -791.58,-644.43 -714.78,-40.58 -580.48,-4.69 -1139.84,-10.56 -1720.32,-15.26z"/>
     <path class="fil25" d="M2455.17 25134.32c88.85,-107.61 154.35,-251.16 266.55,-322.84 160.41,-38.61 315.32,-34.63 477.11,-20.03l-1.03 401.37 -742.62 -58.51z"/>
     <path class="fil25" d="M3738.48 24855.81c225.88,103.36 438.03,270.55 657.05,405.85l-1030.23 -69.99 0.63 -394.11c217.56,-8.29 290.95,26.44 372.56,58.25z"/>
     <path class="fil28 str3" d="M2832.42 25802.55c570.71,8.22 1141.39,16.44 1426.74,20.65 285.35,4.22 285.36,4.43 285.36,4.65"/>
     <path class="fil28 str3" d="M5270.94 25828.61c64.81,-2.68 129.64,-5.36 202.74,-21.19 73.12,-15.84 154.54,-44.82 235.95,-73.81"/>
     <path class="fil28 str3" d="M5247.22 25653.2c87.18,-7.15 174.36,-14.28 251.96,-29.89 77.61,-15.6 145.64,-39.66 213.68,-63.72"/>
     <path class="fil28 str3" d="M4390.67 25260.76c9.14,188.14 18.26,376.28 22.83,470.35 4.56,94.07 4.56,94.07 4.56,94.07"/>
     <path class="fil28 str3" d="M3369.72 25191.97c-34.32,-3.09 -68.63,-6.2 -81.6,96.61 -12.98,102.83 -4.61,311.6 -0.41,415.96 4.19,104.38 4.19,104.38 4.19,104.38"/>
     <path class="fil28 str3" d="M5545.99 25612.67c-36.33,-55.04 -72.67,-110.08 -49.41,-143.01 23.26,-32.93 106.13,-43.76 147.56,-49.18 41.44,-5.41 41.44,-5.41 41.44,-5.41"/>
     <path class="fil28 str3" d="M1960.38 25121.84c72.35,31.14 144.72,62.28 171.08,100.94 26.37,38.67 6.73,84.85 -36.11,101.19 -42.85,16.35 -108.9,2.84 -174.96,-10.67"/>
     <path class="fil25" d="M4123.63 24740.77c95.06,22.43 256.18,107.05 376.14,180.92 119.96,73.87 198.78,136.98 238.08,169.32 39.3,32.31 39.07,33.83 -9.45,53.09 -48.54,19.25 -145.38,56.25 -191.96,71.57 -46.57,15.3 -42.89,8.93 -133.32,-61.75 -90.41,-70.69 -274.92,-205.7 -362.7,-275.78 -87.81,-70.07 -78.86,-75.19 -59.88,-97.62 18.98,-22.44 48.01,-62.19 143.08,-39.74z"/>
     <g>
      <ellipse class="fil25" cx="2470.46" cy="25772.48" rx="336.82" ry="326.37"/>
      <ellipse class="fil26" cx="2470.13" cy="25776.86" rx="180.89" ry="175.27"/>
     </g>
     <g>
      <ellipse class="fil25" cx="4910.5" cy="25770.6" rx="341.57" ry="330.97"/>
      <ellipse class="fil26" cx="4910.16" cy="25775.04" rx="183.44" ry="177.74"/>
     </g>
     <path class="fil28 str3" d="M1899.49 25605.66c48,60.04 71.31,96.57 211.02,121.92"/>
    </g>
   </g>
  </g>
  <polygon class="fil28" points="-0,0 12762.52,0 12762.52,26588.58 -0,26588.58 "/>
 </g>
</svg>
