<?xml version="1.0" encoding="UTF-8"?>
<!DOCTYPE svg PUBLIC "-//W3C//DTD SVG 1.0//EN" "http://www.w3.org/TR/2001/REC-SVG-20010904/DTD/svg10.dtd">
<!-- Creator: CorelDRAW 2021 (64-Bit) -->
<svg xmlns="http://www.w3.org/2000/svg" xml:space="preserve" width="120mm" height="250mm" version="1.0" style="shape-rendering:geometricPrecision; text-rendering:geometricPrecision; image-rendering:optimizeQuality; fill-rule:evenodd; clip-rule:evenodd"
viewBox="0 0 13738.02 28620.87"
 xmlns:xlink="http://www.w3.org/1999/xlink"
 xmlns:xodm="http://www.corel.com/coreldraw/odm/2003">
 <defs>
  <style type="text/css">
   <![CDATA[
    .str0 {stroke:#0942AD;stroke-width:20.19;stroke-miterlimit:22.9256}
    .str3 {stroke:#0942AD;stroke-width:8.72;stroke-miterlimit:22.9256}
    .str1 {stroke:#4275BD;stroke-width:8.72;stroke-miterlimit:22.9256}
    .str2 {stroke:#EEF2AC;stroke-width:8.72;stroke-miterlimit:22.9256}
    .fil29 {fill:none}
    .fil3 {fill:#02C3E2}
    .fil25 {fill:#0942AD}
    .fil1 {fill:#0CE2DA}
    .fil22 {fill:#7BE4EA}
    .fil4 {fill:#82ABE1}
    .fil24 {fill:#95BCF5}
    .fil19 {fill:#98C2FF}
    .fil7 {fill:#98C3FE}
    .fil18 {fill:#98C3FF}
    .fil9 {fill:#99C3FD}
    .fil11 {fill:#99C3FF}
    .fil13 {fill:#AAD3FF}
    .fil6 {fill:#AAD4FE}
    .fil23 {fill:#ABD4FF}
    .fil21 {fill:#ADD4F6}
    .fil8 {fill:#ADD4FD}
    .fil16 {fill:#ADD4FF}
    .fil10 {fill:#B0D5FC}
    .fil5 {fill:#C4E5FF}
    .fil15 {fill:#C5E4FF}
    .fil17 {fill:#C6E3FF}
    .fil14 {fill:#C6E4FF}
    .fil27 {fill:#C7E1F8}
    .fil12 {fill:#E0F2FE}
    .fil2 {fill:#E6F0FA}
    .fil26 {fill:#F0FAFD}
    .fil20 {fill:#F1FAFF}
    .fil0 {fill:#F2F9FF}
    .fil28 {fill:#FFE5D4}
    .fil30 {fill:#FEFEFE;fill-rule:nonzero}
   ]]>
  </style>
   <clipPath id="id0">
    <path d="M-0 0l13738.02 0 0 28620.87 -13738.02 0 0 -28620.87z"/>
   </clipPath>
 </defs>
 <g id="Capa_x0020_1">
  <metadata id="CorelCorpID_0Corel-Layer"/>
  <g>
  </g>
  <g style="clip-path:url(#id0)">
   <g>
    <rect class="fil0" x="-191.18" y="-45.07" width="14328.55" height="11222.46"/>
    <rect class="fil1" x="-283.96" y="9645.95" width="14351.97" height="18991.8"/>
    <path class="fil2" d="M839.03 3617.94c550.26,-81.68 756.14,-500.71 774.15,-781.73 -2.61,-150.01 -26.09,-821.33 -900.18,-864.01 -244.08,-956.77 -849.04,-923.6 -1026.2,-928.67 -360.37,9.67 -877.3,157.35 -1081.12,765.01 -194.07,-57.72 -346.42,-110.33 -629.2,10.83 -164.47,85.78 -391.56,253.33 -462.09,640.66 -203.95,28.54 -637,36.98 -690.13,499.61 -7.4,466.71 340.07,601.21 510.09,664.16l3504.68 -5.87z"/>
    <path class="fil2" d="M15973.22 3587.8c550.26,-81.68 756.14,-500.71 774.15,-781.73 -2.61,-150.01 -26.09,-821.33 -900.18,-864.01 -244.08,-956.77 -849.04,-923.6 -1026.2,-928.67 -360.37,9.67 -877.3,157.35 -1081.12,765.01 -194.07,-57.72 -346.42,-110.33 -629.2,10.83 -164.47,85.78 -391.56,253.33 -462.09,640.66 -203.95,28.54 -637,36.98 -690.13,499.61 -7.4,466.71 340.07,601.21 510.09,664.16l3504.68 -5.87z"/>
    <path class="fil3" d="M1785.64 29353c538.94,-81.68 740.58,-500.71 758.21,-781.73 -2.55,-150.01 -25.55,-821.33 -881.65,-864.01 -239.05,-956.77 -831.57,-923.6 -1005.07,-928.67 -352.95,9.67 -859.24,157.35 -1058.87,765.01 -190.08,-57.72 -339.28,-110.33 -616.25,10.83 -161.08,85.78 -383.5,253.33 -452.58,640.66 -199.75,28.54 -623.89,36.98 -675.92,499.61 -7.25,466.71 333.07,601.21 499.59,664.16l3432.54 -5.87z"/>
    <path class="fil3" d="M14768.6 29340.23c538.94,-81.68 740.58,-500.71 758.21,-781.73 -2.55,-150.01 -25.55,-821.33 -881.65,-864.01 -239.05,-956.77 -831.57,-923.6 -1005.07,-928.67 -352.95,9.67 -859.24,157.35 -1058.87,765.01 -190.08,-57.72 -339.28,-110.33 -616.25,10.83 -161.08,85.78 -383.5,253.33 -452.58,640.66 -199.75,28.54 -623.89,36.98 -675.92,499.61 -7.25,466.71 333.07,601.21 499.59,664.16l3432.54 -5.87z"/>
    <g id="_2764476786336">
     <rect class="fil4" x="-251.35" y="9926.1" width="14339.99" height="1125.71"/>
     <polygon class="fil5" points="14092.01,8578.36 14090.22,9955.39 -250.08,9954.83 -255.37,8576.52 1330.4,8576.02 1337.76,4797.35 4389.06,4814.61 4377.94,8577.52 4841.5,8579.3 4833.54,7614.77 10664.25,7607.05 10666.29,8577.8 11416.5,8576.25 11412.49,4798.44 13262.97,4797.14 13261.21,8578.07 "/>
     <rect class="fil6" x="1706.88" y="5686.86" width="913.51" height="289.48"/>
     <rect class="fil7" x="1785.3" y="5188.05" width="758.41" height="498.82"/>
     <rect class="fil8" x="2149.82" y="5189.21" width="34.97" height="498.64"/>
     <rect class="fil9" x="2623.26" y="8715.58" width="451.96" height="844.28"/>
     <rect class="fil10" x="2165.48" y="8435.26" width="1357.56" height="284.88"/>
     <rect class="fil11" x="463.72" y="8588.71" width="1458.1" height="975.13"/>
     <polygon class="fil11" points="4539.77,5561.57 4543.8,7646.36 10901.75,7636.53 10901.92,6327.49 10606.52,6071.8 "/>
     <rect class="fil11" x="5108.14" y="8129.06" width="2456.73" height="1426.94"/>
     <polygon class="fil11" points="5191.91,7874.23 4925.63,8137.97 7759.86,8143.69 7499.53,7868.5 "/>
     <polygon class="fil12" points="5249.03,8139.19 5097.78,8447.43 4939.84,8139.19 "/>
     <polygon class="fil13" points="5557.64,8138.8 5406.38,8447.03 5248.44,8138.8 "/>
     <polygon class="fil12" points="5866.79,8139.9 5715.52,8448.14 5557.59,8139.9 "/>
     <polygon class="fil13" points="6175.39,8139.5 6024.12,8447.74 5866.19,8139.5 "/>
     <polygon class="fil12" points="6486.91,8141.08 6335.65,8449.32 6177.71,8141.08 "/>
     <polygon class="fil13" points="6795.51,8140.68 6644.26,8448.92 6486.31,8140.68 "/>
     <polygon class="fil12" points="7107.78,8141.08 6956.52,8449.32 6798.58,8141.08 "/>
     <polygon class="fil13" points="7416.38,8140.68 7265.12,8448.92 7107.18,8140.68 "/>
     <polygon class="fil12" points="7732.52,8141.08 7581.27,8449.32 7423.34,8141.08 "/>
     <rect class="fil11" x="8086.56" y="8224.06" width="2553.55" height="843.69"/>
     <rect class="fil14" x="8849.4" y="8235.59" width="33.48" height="819.86"/>
     <rect class="fil14" x="9724.99" y="8224.06" width="33.48" height="837.03"/>
     <rect class="fil6" x="3100.14" y="5679.25" width="913.51" height="289.48"/>
     <rect class="fil7" x="3178.56" y="5180.44" width="758.41" height="498.82"/>
     <rect class="fil8" x="3543.09" y="5181.6" width="34.97" height="498.64"/>
     <rect class="fil6" x="1706.88" y="6828.6" width="913.51" height="289.48"/>
     <rect class="fil7" x="1785.3" y="6329.79" width="758.41" height="498.82"/>
     <rect class="fil8" x="2149.82" y="6330.95" width="34.97" height="498.64"/>
     <rect class="fil6" x="3100.14" y="6820.99" width="913.51" height="289.48"/>
     <rect class="fil7" x="3178.56" y="6322.18" width="758.41" height="498.82"/>
     <rect class="fil8" x="3543.09" y="6323.34" width="34.97" height="498.64"/>
     <rect class="fil6" x="1694.93" y="7874.8" width="913.51" height="289.48"/>
     <rect class="fil7" x="1773.36" y="7375.99" width="758.41" height="498.82"/>
     <rect class="fil8" x="2137.88" y="7377.15" width="34.97" height="498.64"/>
     <rect class="fil6" x="3088.2" y="7867.19" width="913.51" height="289.48"/>
     <rect class="fil7" x="3166.62" y="7368.38" width="758.41" height="498.82"/>
     <rect class="fil8" x="3531.14" y="7369.54" width="34.97" height="498.64"/>
     <g>
      <rect class="fil11" x="11602.8" y="7177.58" width="728.12" height="753.43"/>
      <rect class="fil15" x="11945.29" y="7175.91" width="46.14" height="755.11"/>
      <rect class="fil15" x="11580.03" y="7389.82" width="767.73" height="28.24"/>
      <rect class="fil15" x="11578.84" y="7662.89" width="767.73" height="28.24"/>
     </g>
     <polygon class="fil16" points="11045.69,7618.6 11045.49,9952.13 13318.04,9947.28 13329.25,7319.99 12223.64,7322.5 12213.25,7624.81 "/>
     <polygon class="fil9" points="12820.16,7886.39 12361.95,8556.79 14088.44,8556.79 14092.37,7884.32 "/>
     <rect class="fil17" x="12691.93" y="8555.3" width="1396.75" height="1331.77"/>
     <rect class="fil18" x="13246.01" y="8709.54" width="673.43" height="585.94"/>
     <rect class="fil19" x="11380.11" y="7863.11" width="679.56" height="175.29"/>
     <rect class="fil20" x="12928.8" y="7403.42" width="316.19" height="226.46"/>
     <g>
      <rect class="fil11" x="11578.9" y="5123.6" width="728.12" height="753.43"/>
      <rect class="fil15" x="11921.39" y="5121.92" width="46.14" height="755.11"/>
      <rect class="fil15" x="11556.13" y="5335.83" width="767.73" height="28.24"/>
      <rect class="fil15" x="11554.94" y="5608.91" width="767.73" height="28.24"/>
     </g>
     <g>
      <rect class="fil11" x="12293.98" y="6143.62" width="728.12" height="753.43"/>
      <rect class="fil15" x="12636.47" y="6141.94" width="46.14" height="755.11"/>
      <rect class="fil15" x="12271.21" y="6355.85" width="767.73" height="28.24"/>
      <rect class="fil15" x="12270.02" y="6628.92" width="767.73" height="28.24"/>
     </g>
     <rect class="fil21" x="1036.53" y="5695.51" width="303.33" height="277.36"/>
     <rect class="fil21" x="1029.81" y="6827.23" width="303.33" height="287.46"/>
     <rect class="fil21" x="1028.15" y="7878.57" width="303.33" height="284.92"/>
     <rect class="fil21" x="13262.06" y="5230.22" width="303.33" height="277.36"/>
     <rect class="fil21" x="13262.06" y="6551.24" width="303.33" height="277.36"/>
     <rect class="fil22" x="8076.36" y="9324.18" width="2549.74" height="225.44"/>
     <rect class="fil23" x="-240.83" y="9560.53" width="14330.57" height="394.59"/>
     <rect class="fil24" x="288.82" y="10741.33" width="1489.41" height="43.59"/>
     <rect class="fil24" x="2866.03" y="10737.63" width="1489.41" height="43.59"/>
     <rect class="fil24" x="5577.82" y="10738.86" width="1489.41" height="43.59"/>
     <rect class="fil24" x="8494" y="10732.44" width="1489.41" height="43.59"/>
     <rect class="fil24" x="11437.32" y="10732.27" width="1489.41" height="43.59"/>
    </g>
    <g id="_2764476786720">
     <path class="fil0 str0" d="M7758.27 9373.81c-41.65,35.68 -91.35,722.29 84.64,864.73 1264,-2.64 2528.01,-5.29 3792.01,-7.92 137.46,-65.56 110.91,-510.56 81.72,-601.84 -102.37,-92.07 -167.13,-147.66 -355.49,-205.89l-690.58 -71.28 -540.67 -980.79 -1403.19 4.9 -438.03 991.72 -530.41 6.37z"/>
     <ellipse class="fil25" cx="8576.67" cy="10234.86" rx="307.36" ry="297.82"/>
     <ellipse class="fil26" cx="8570.62" cy="10237.35" rx="165.06" ry="159.94"/>
     <ellipse class="fil25" cx="10668.59" cy="10232.63" rx="307.36" ry="297.82"/>
     <ellipse class="fil26" cx="10662.54" cy="10235.12" rx="165.06" ry="159.94"/>
     <polygon class="fil25" points="8781.94,8532.65 8414.31,9371.4 9400.07,9374.18 9400.07,8535.33 "/>
     <polygon class="fil25" points="9567.04,9373.03 9568.46,8533.79 10103.66,8532.6 10504.96,9369.65 "/>
     <rect class="fil27" x="7616.33" y="9922.62" width="245.35" height="170.39"/>
     <rect class="fil27" x="7671.54" y="9688.83" width="192.19" height="142.65"/>
     <rect class="fil27" x="11308.93" y="9952.04" width="539.79" height="150.58"/>
     <polygon class="fil27" points="11653.63,9838.84 11621.64,9674.73 11190.35,9674.68 11285.52,9838.88 "/>
     <rect class="fil27" x="9469.92" y="9311.64" width="18.55" height="728.3"/>
     <rect class="fil27" x="9129.67" y="9551.41" width="154.66" height="59.94"/>
     <rect class="fil27" x="9686.44" y="9566.39" width="157.74" height="38.97"/>
    </g>
    <g id="_2764476804480">
     <polygon class="fil4 str1" points="12443.67,7180.82 12444.4,8886.11 12536.47,9898.43 12241.82,9898.84 12339.07,8883.4 12339.57,7181.28 12284.4,7063.39 12498.26,7064.35 "/>
     <ellipse class="fil28 str2" cx="12389.44" cy="6910.56" rx="191.62" ry="189.58"/>
    </g>
    <g id="_2764476807024">
     <path class="fil0 str0" d="M2884.47 10129.84c25.82,-248.19 -110.76,-416.87 -316.35,-456.58 -251.46,-36.07 -477.48,149.3 -459.27,394.51 -113.77,-37.61 -191.7,-75.63 -218.62,-180.68 -4.53,-17.72 -7.64,-37.39 -9.19,-59.25 -3.74,-52.18 4.41,-115.88 30.46,-193.53 -4.93,-102.58 -22.72,-225.04 60.91,-330.09 182.7,-153.3 316.59,-300.4 551.94,-443.75 362.92,-31.76 621.85,-32.41 934.7,-40.53 239.37,1.79 346.19,-11.45 726.82,67.21 245.34,89.64 538.07,217.71 801.77,454.55 239.38,7.59 464.57,42.37 701.06,128.71 99.12,41.96 368.51,-21.05 287.49,613.92 -33.41,43.81 -237.16,109.31 -470.49,105.62 124.17,-707.11 -852.09,-693.69 -769.41,-43.69 -624.85,-5.05 -1226.97,-11.37 -1851.82,-16.43z"/>
     <path class="fil25" d="M2482.46 9350.31c95.64,-115.83 166.15,-270.35 286.92,-347.51 172.68,-41.56 339.42,-37.28 513.57,-21.56l-1.11 432.05 -799.38 -62.98z"/>
     <path class="fil25" d="M3863.86 9050.52c243.14,111.26 471.51,291.23 707.27,436.87l-1108.98 -75.34 0.68 -424.23c234.19,-8.92 313.19,28.46 401.04,62.7z"/>
     <path class="fil29 str3" d="M2888.54 10069.61c614.33,8.85 1228.64,17.7 1535.8,22.23 307.16,4.54 307.17,4.77 307.17,5"/>
     <path class="fil29 str3" d="M5513.46 10097.67c69.77,-2.88 139.54,-5.77 218.24,-22.81 78.71,-17.05 166.36,-48.24 253.98,-79.45"/>
     <path class="fil29 str3" d="M5487.93 9908.86c93.84,-7.69 187.68,-15.38 271.22,-32.17 83.54,-16.79 156.77,-42.69 230.01,-68.59"/>
     <path class="fil29 str3" d="M4565.9 9486.41c9.83,202.52 19.66,405.04 24.58,506.3 4.91,101.26 4.91,101.26 4.91,101.26"/>
     <path class="fil29 str3" d="M3466.92 9412.36c-36.94,-3.33 -73.88,-6.67 -87.83,104 -13.97,110.69 -4.96,335.41 -0.45,447.76 4.51,112.35 4.51,112.35 4.51,112.35"/>
     <path class="fil29 str3" d="M5809.53 9865.23c-39.11,-59.25 -78.23,-118.49 -53.19,-153.95 25.04,-35.44 114.24,-47.11 158.83,-52.94 44.6,-5.83 44.6,-5.83 44.6,-5.83"/>
     <path class="fil29 str3" d="M1949.85 9336.87c77.88,33.52 155.78,67.04 184.16,108.66 28.38,41.63 7.25,91.33 -38.87,108.92 -46.13,17.6 -117.22,3.06 -188.34,-11.48"/>
     <path class="fil25" d="M4278.45 8926.68c102.33,24.14 275.76,115.23 404.89,194.75 129.13,79.52 213.97,147.45 256.28,182.26 42.3,34.78 42.06,36.42 -10.18,57.15 -52.25,20.72 -156.49,60.55 -206.63,77.04 -50.13,16.47 -46.17,9.62 -143.51,-66.47 -97.32,-76.1 -295.93,-221.42 -390.42,-296.86 -94.52,-75.42 -84.89,-80.94 -64.45,-105.08 20.44,-24.16 51.68,-66.94 154.01,-42.78z"/>
     <g>
      <ellipse class="fil25" cx="2498.93" cy="10037.25" rx="362.57" ry="351.32"/>
      <ellipse class="fil26" cx="2498.56" cy="10041.96" rx="194.71" ry="188.67"/>
     </g>
     <g>
      <ellipse class="fil25" cx="5125.47" cy="10035.23" rx="367.68" ry="356.27"/>
      <ellipse class="fil26" cx="5125.1" cy="10040.01" rx="197.46" ry="191.33"/>
     </g>
     <path class="fil29 str3" d="M1884.31 9857.68c51.67,64.63 76.76,103.95 227.15,131.24"/>
    </g>
    <g id="_2764476804384">
     <path class="fil23" d="M5542.05 5938.83c401.14,0 726.33,315.09 726.33,703.79 0,388.69 -325.19,703.79 -726.33,703.79 -401.14,0 -726.33,-315.09 -726.33,-703.79 0,-388.69 325.19,-703.79 726.33,-703.79z"/>
     <path class="fil30 str0" d="M4999.44 6747.2l120.78 -11.62c7.27,39.14 21.83,67.77 43.96,86.17 22.13,18.4 51.96,27.52 89.51,27.52 39.67,0 69.65,-8.16 89.78,-24.48 20.13,-16.33 30.27,-35.41 30.27,-57.26 0,-14.12 -4.29,-26.01 -12.72,-35.97 -8.4,-9.81 -23.26,-18.4 -44.39,-25.59 -14.41,-4.98 -47.25,-13.55 -98.64,-26 -66.09,-16.05 -112.49,-35.7 -139.19,-59.06 -37.54,-32.79 -56.23,-72.77 -56.23,-119.93 0,-30.29 8.85,-58.79 26.41,-85.2 17.7,-26.42 43.1,-46.48 76.37,-60.31 33.26,-13.83 73.22,-20.74 120.33,-20.74 76.66,0 134.46,16.45 173.16,49.51 38.82,33.06 59.1,77.05 61.1,132.24l-124.2 4.14c-5.28,-30.7 -16.55,-52.7 -33.83,-66.11 -17.26,-13.42 -43.25,-20.19 -77.79,-20.19 -35.68,0 -63.68,7.19 -83.8,21.58 -12.99,9.26 -19.55,21.57 -19.55,37.07 0,14.1 6.14,26.14 18.41,36.1 15.57,12.87 53.4,26.15 113.5,39.98 60.09,13.69 104.49,28.07 133.18,42.74 28.84,14.8 51.39,34.86 67.66,60.45 16.28,25.59 24.42,57.13 24.42,94.61 0,34.04 -9.71,65.98 -29.27,95.72 -19.55,29.74 -47.1,51.87 -82.78,66.26 -35.7,14.52 -80.23,21.71 -133.48,21.71 -77.52,0 -137.04,-17.29 -178.58,-52 -41.55,-34.59 -66.24,-85.07 -74.38,-151.32zm996.13 -26.56l119.91 35.68c-18.42,65.43 -49.1,113.98 -91.94,145.79 -42.83,31.67 -97.07,47.58 -162.88,47.58 -81.51,0 -148.46,-26.97 -201,-80.92 -52.39,-53.94 -78.65,-127.67 -78.65,-221.32 0,-98.89 26.4,-175.8 79.09,-230.58 52.67,-54.77 122.05,-82.15 207.98,-82.15 75.1,0 136.05,21.57 182.88,64.59 27.98,25.45 48.82,61.97 62.81,109.69l-122.49 28.22c-7.28,-30.7 -22.42,-55.06 -45.39,-72.89 -23.13,-17.85 -51.11,-26.7 -83.94,-26.7 -45.53,0 -82.51,15.76 -110.77,47.44 -28.4,31.54 -42.53,82.71 -42.53,153.53 0,74.98 13.99,128.5 41.82,160.31 27.98,31.95 64.24,47.87 108.91,47.87 32.98,0 61.4,-10.1 85.08,-30.43 23.7,-20.33 40.84,-52.15 51.12,-95.72z"/>
    </g>
   </g>
  </g>
  <polygon class="fil29" points="-0,0 13738.02,0 13738.02,28620.87 -0,28620.87 "/>
 </g>
</svg>
