<?xml version="1.0" encoding="UTF-8"?>
<!DOCTYPE svg PUBLIC "-//W3C//DTD SVG 1.0//EN" "http://www.w3.org/TR/2001/REC-SVG-20010904/DTD/svg10.dtd">
<!-- Creator: CorelDRAW 2021 (64-Bit) -->
<svg xmlns="http://www.w3.org/2000/svg" xml:space="preserve" width="120mm" height="250mm" version="1.0" style="shape-rendering:geometricPrecision; text-rendering:geometricPrecision; image-rendering:optimizeQuality; fill-rule:evenodd; clip-rule:evenodd"
viewBox="0 0 12373.56 25778.25"
 xmlns:xlink="http://www.w3.org/1999/xlink"
 xmlns:xodm="http://www.corel.com/coreldraw/odm/2003">
 <defs>
  <style type="text/css">
   <![CDATA[
    .str0 {stroke:#0942AD;stroke-width:18.19;stroke-miterlimit:22.9256}
    .str3 {stroke:#0942AD;stroke-width:7.86;stroke-miterlimit:22.9256}
    .str1 {stroke:#4275BD;stroke-width:7.86;stroke-miterlimit:22.9256}
    .str2 {stroke:#EEF2AC;stroke-width:7.86;stroke-miterlimit:22.9256}
    .fil28 {fill:none}
    .fil23 {fill:#0942AD}
    .fil19 {fill:#7BE4EA}
    .fil1 {fill:#82ABE1}
    .fil21 {fill:#95BCF5}
    .fil16 {fill:#98C2FF}
    .fil4 {fill:#98C3FE}
    .fil15 {fill:#98C3FF}
    .fil6 {fill:#99C3FD}
    .fil8 {fill:#99C3FF}
    .fil10 {fill:#AAD3FF}
    .fil3 {fill:#AAD4FE}
    .fil20 {fill:#ABD4FF}
    .fil18 {fill:#ADD4F6}
    .fil5 {fill:#ADD4FD}
    .fil13 {fill:#ADD4FF}
    .fil7 {fill:#B0D5FC}
    .fil2 {fill:#C4E5FF}
    .fil12 {fill:#C5E4FF}
    .fil14 {fill:#C6E3FF}
    .fil11 {fill:#C6E4FF}
    .fil25 {fill:#C7E1F8}
    .fil0 {fill:#D5E5F5}
    .fil9 {fill:#E0F2FE}
    .fil27 {fill:#E6F0FA}
    .fil24 {fill:#F0FAFD}
    .fil17 {fill:#F1FAFF}
    .fil22 {fill:#F2F9FF}
    .fil26 {fill:#FFE5D4}
    .fil29 {fill:#FEFEFE;fill-rule:nonzero}
   ]]>
  </style>
   <clipPath id="id0">
    <path d="M-0 0l12373.56 0 0 25778.25 -12373.56 0 0 -25778.25z"/>
   </clipPath>
 </defs>
 <g id="Capa_x0020_1">
  <metadata id="CorelCorpID_0Corel-Layer"/>
  <g>
  </g>
  <g style="clip-path:url(#id0)">
   <g>
    <rect class="fil0" x="-254.3" y="-69.09" width="12889.12" height="25909.24"/>
    <g id="_2764468700832">
     <rect class="fil1" x="-257.82" y="24833.44" width="12882.17" height="1013.9"/>
     <polygon class="fil2" points="12627.37,23619.56 12625.76,24859.83 -256.68,24859.32 -261.43,23617.9 1163.12,23617.45 1169.73,20214.08 3910.83,20229.63 3900.85,23618.8 4317.28,23620.41 4310.13,22751.67 9548.09,22744.72 9549.91,23619.06 10223.85,23617.66 10220.25,20215.06 11882.61,20213.9 11881.03,23619.3 "/>
     <rect class="fil3" x="1501.33" y="21015.25" width="820.64" height="260.73"/>
     <rect class="fil4" x="1571.78" y="20565.98" width="681.31" height="449.27"/>
     <rect class="fil5" x="1899.24" y="20567.03" width="31.42" height="449.11"/>
     <rect class="fil6" x="2324.55" y="23743.16" width="406.01" height="760.43"/>
     <rect class="fil7" x="1913.31" y="23490.68" width="1219.55" height="256.59"/>
     <rect class="fil8" x="384.55" y="23628.88" width="1309.87" height="878.28"/>
     <polygon class="fil8" points="4046.23,20902.4 4049.86,22780.13 9761.43,22771.27 9761.59,21592.25 9496.22,21361.96 "/>
     <rect class="fil8" x="4556.81" y="23214.89" width="2206.97" height="1285.22"/>
     <polygon class="fil8" points="4632.06,22985.37 4392.86,23222.91 6938.96,23228.07 6705.09,22980.2 "/>
     <polygon class="fil9" points="4683.38,23224.01 4547.5,23501.63 4405.62,23224.01 "/>
     <polygon class="fil10" points="4960.61,23223.66 4824.73,23501.27 4682.85,23223.66 "/>
     <polygon class="fil9" points="5238.33,23224.65 5102.44,23502.27 4960.57,23224.65 "/>
     <polygon class="fil10" points="5515.55,23224.29 5379.67,23501.91 5237.8,23224.29 "/>
     <polygon class="fil9" points="5795.41,23225.71 5659.53,23503.34 5517.65,23225.71 "/>
     <polygon class="fil10" points="6072.64,23225.35 5936.76,23502.97 5794.88,23225.35 "/>
     <polygon class="fil9" points="6353.16,23225.71 6217.28,23503.34 6075.4,23225.71 "/>
     <polygon class="fil10" points="6630.39,23225.35 6494.51,23502.97 6352.63,23225.35 "/>
     <polygon class="fil9" points="6914.41,23225.71 6778.52,23503.34 6636.64,23225.71 "/>
     <rect class="fil8" x="7232.44" y="23300.45" width="2293.96" height="759.9"/>
     <rect class="fil11" x="7917.73" y="23310.83" width="30.08" height="738.43"/>
     <rect class="fil11" x="8704.31" y="23300.45" width="30.08" height="753.9"/>
     <rect class="fil3" x="2752.95" y="21008.4" width="820.64" height="260.73"/>
     <rect class="fil4" x="2823.4" y="20559.12" width="681.31" height="449.27"/>
     <rect class="fil5" x="3150.86" y="20560.17" width="31.42" height="449.11"/>
     <rect class="fil3" x="1501.33" y="22043.59" width="820.64" height="260.73"/>
     <rect class="fil4" x="1571.78" y="21594.32" width="681.31" height="449.27"/>
     <rect class="fil5" x="1899.24" y="21595.37" width="31.42" height="449.11"/>
     <rect class="fil3" x="2752.95" y="22036.74" width="820.64" height="260.73"/>
     <rect class="fil4" x="2823.4" y="21587.46" width="681.31" height="449.27"/>
     <rect class="fil5" x="3150.86" y="21588.51" width="31.42" height="449.11"/>
     <rect class="fil3" x="1490.6" y="22985.88" width="820.64" height="260.73"/>
     <rect class="fil4" x="1561.05" y="22536.61" width="681.31" height="449.27"/>
     <rect class="fil5" x="1888.51" y="22537.66" width="31.42" height="449.11"/>
     <rect class="fil3" x="2742.22" y="22979.03" width="820.64" height="260.73"/>
     <rect class="fil4" x="2812.67" y="22529.76" width="681.31" height="449.27"/>
     <rect class="fil5" x="3140.13" y="22530.8" width="31.42" height="449.11"/>
     <g>
      <rect class="fil8" x="10391.21" y="22357.91" width="654.1" height="678.6"/>
      <rect class="fil12" x="10698.89" y="22356.4" width="41.45" height="680.11"/>
      <rect class="fil12" x="10370.76" y="22549.06" width="689.68" height="25.44"/>
      <rect class="fil12" x="10369.69" y="22795.02" width="689.68" height="25.44"/>
     </g>
     <polygon class="fil13" points="9890.74,22755.13 9890.57,24856.89 11932.07,24852.52 11942.15,22486.18 10948.95,22488.44 10939.6,22760.72 "/>
     <polygon class="fil6" points="11484.82,22996.32 11073.19,23600.14 12624.16,23600.14 12627.69,22994.45 "/>
     <rect class="fil14" x="11369.62" y="23598.79" width="1254.75" height="1199.5"/>
     <rect class="fil15" x="11867.37" y="23737.71" width="604.97" height="527.75"/>
     <rect class="fil16" x="10191.16" y="22975.35" width="610.48" height="157.88"/>
     <rect class="fil17" x="11582.41" y="22561.32" width="284.04" height="203.97"/>
     <g>
      <rect class="fil8" x="10369.74" y="20507.93" width="654.1" height="678.6"/>
      <rect class="fil12" x="10677.42" y="20506.42" width="41.45" height="680.11"/>
      <rect class="fil12" x="10349.29" y="20699.08" width="689.68" height="25.44"/>
      <rect class="fil12" x="10348.22" y="20945.03" width="689.68" height="25.44"/>
     </g>
     <g>
      <rect class="fil8" x="11012.13" y="21426.64" width="654.1" height="678.6"/>
      <rect class="fil12" x="11319.8" y="21425.13" width="41.45" height="680.11"/>
      <rect class="fil12" x="10991.67" y="21617.79" width="689.68" height="25.44"/>
      <rect class="fil12" x="10990.61" y="21863.74" width="689.68" height="25.44"/>
     </g>
     <rect class="fil18" x="899.12" y="21023.04" width="272.5" height="249.81"/>
     <rect class="fil18" x="893.09" y="22042.36" width="272.5" height="258.91"/>
     <rect class="fil18" x="891.6" y="22989.28" width="272.5" height="256.62"/>
     <rect class="fil18" x="11881.8" y="20603.96" width="272.5" height="249.81"/>
     <rect class="fil18" x="11881.8" y="21793.78" width="272.5" height="249.81"/>
     <rect class="fil19" x="7223.28" y="24291.31" width="2290.53" height="203.05"/>
     <rect class="fil20" x="-248.37" y="24504.19" width="12873.7" height="355.39"/>
     <rect class="fil21" x="227.43" y="25567.71" width="1337.99" height="39.26"/>
     <rect class="fil21" x="2542.64" y="25564.37" width="1337.99" height="39.26"/>
     <rect class="fil21" x="4978.75" y="25565.48" width="1337.99" height="39.26"/>
     <rect class="fil21" x="7598.46" y="25559.7" width="1337.99" height="39.26"/>
     <rect class="fil21" x="10242.56" y="25559.55" width="1337.99" height="39.26"/>
    </g>
    <g id="_2764468698288">
     <path class="fil22 str0" d="M7622.19 24392.61c-37.42,32.14 -82.07,650.55 76.04,778.84 1135.5,-2.38 2271.01,-4.76 3406.51,-7.14 123.48,-59.05 99.63,-459.85 73.41,-542.06 -91.96,-82.92 -150.14,-133 -319.35,-185.44l-620.37 -64.2 -485.7 -883.38 -1260.55 4.41 -393.49 893.23 -476.5 5.73z"/>
     <ellipse class="fil23" cx="8357.39" cy="25168.15" rx="276.11" ry="268.24"/>
     <ellipse class="fil24" cx="8351.96" cy="25170.39" rx="148.28" ry="144.05"/>
     <ellipse class="fil23" cx="10236.65" cy="25166.14" rx="276.11" ry="268.24"/>
     <ellipse class="fil24" cx="10231.21" cy="25168.38" rx="148.28" ry="144.05"/>
     <polygon class="fil23" points="8541.79,23635 8211.54,24390.45 9097.08,24392.95 9097.08,23637.41 "/>
     <polygon class="fil23" points="9247.08,24391.91 9248.36,23636.03 9729.14,23634.96 10089.65,24388.87 "/>
     <rect class="fil25" x="7494.68" y="24886.92" width="220.41" height="153.46"/>
     <rect class="fil25" x="7544.28" y="24676.35" width="172.66" height="128.48"/>
     <rect class="fil25" x="10811.89" y="24913.42" width="484.91" height="135.62"/>
     <polygon class="fil25" points="11121.54,24811.46 11092.81,24663.65 10705.35,24663.6 10790.86,24811.5 "/>
     <rect class="fil25" x="9159.83" y="24336.63" width="16.66" height="655.96"/>
     <rect class="fil25" x="8854.18" y="24552.58" width="138.94" height="53.99"/>
     <rect class="fil25" x="9354.34" y="24566.07" width="141.71" height="35.1"/>
    </g>
    <g id="_2764468698240">
     <polygon class="fil1 str1" points="7094.47,22377.96 7095.12,23913.88 7177.84,24825.66 6913.15,24826.03 7000.51,23911.45 7000.95,22378.37 6951.39,22272.2 7143.5,22273.06 "/>
     <ellipse class="fil26 str2" cx="7045.76" cy="22134.55" rx="172.14" ry="170.75"/>
    </g>
    <path class="fil27" d="M1253.54 17743.11c495.61,-73.57 681.04,-450.97 697.26,-704.09 -2.35,-135.11 -23.5,-739.75 -810.78,-778.19 -219.84,-861.75 -764.72,-831.86 -924.27,-836.43 -324.58,8.71 -790.17,141.72 -973.75,689.03 -174.8,-51.99 -312.01,-99.37 -566.71,9.75 -148.13,77.26 -352.67,228.17 -416.19,577.03 -183.7,25.71 -573.73,33.31 -621.59,449.99 -6.66,420.36 306.3,541.5 459.43,598.2l3156.6 -5.29z"/>
    <path class="fil27" d="M13575.93 10358.11c495.61,-73.57 681.04,-450.97 697.26,-704.09 -2.35,-135.11 -23.5,-739.75 -810.78,-778.19 -219.84,-861.75 -764.72,-831.86 -924.27,-836.43 -324.58,8.71 -790.17,141.72 -973.75,689.03 -174.8,-51.99 -312.01,-99.37 -566.71,9.75 -148.13,77.26 -352.67,228.17 -416.19,577.03 -183.7,25.71 -573.73,33.31 -621.59,449.99 -6.66,420.36 306.3,541.5 459.43,598.2l3156.6 -5.29z"/>
    <path class="fil27" d="M1768.1 5027.84c495.61,-73.57 681.04,-450.97 697.26,-704.09 -2.35,-135.11 -23.5,-739.75 -810.78,-778.19 -219.84,-861.75 -764.72,-831.86 -924.27,-836.43 -324.58,8.71 -790.17,141.72 -973.75,689.03 -174.8,-51.99 -312.01,-99.37 -566.71,9.75 -148.13,77.26 -352.67,228.17 -416.19,577.03 -183.7,25.71 -573.73,33.31 -621.59,449.99 -6.66,420.36 306.3,541.5 459.43,598.2l3156.6 -5.29z"/>
    <g id="_2764468729200">
     <path class="fil22 str0" d="M2245.3 25085.18c23.25,-223.54 -99.76,-375.47 -284.93,-411.24 -226.49,-32.49 -430.05,134.47 -413.66,355.33 -102.47,-33.87 -172.66,-68.12 -196.9,-162.73 -4.08,-15.96 -6.88,-33.68 -8.28,-53.36 -3.37,-47 3.97,-104.37 27.44,-174.31 -4.44,-92.39 -20.47,-202.69 54.86,-297.31 164.56,-138.08 285.15,-270.57 497.12,-399.68 326.88,-28.6 560.09,-29.19 841.87,-36.5 215.6,1.61 311.8,-10.31 654.63,60.54 220.97,80.74 484.63,196.09 722.14,409.4 215.61,6.84 418.43,38.16 631.43,115.93 89.28,37.79 331.91,-18.96 258.94,552.94 -30.09,39.46 -213.61,98.45 -423.76,95.13 111.84,-636.88 -767.46,-624.79 -692.99,-39.35 -562.79,-4.55 -1105.1,-10.24 -1667.89,-14.8z"/>
     <path class="fil23" d="M1883.21 24383.08c86.14,-104.33 149.65,-243.5 258.42,-313 155.53,-37.43 305.71,-33.57 462.56,-19.42l-1 389.14 -719.99 -56.72z"/>
     <path class="fil23" d="M3127.42 24113.05c218.99,100.21 424.68,262.31 637.02,393.48l-998.83 -67.86 0.61 -382.1c210.93,-8.03 282.09,25.63 361.2,56.47z"/>
     <path class="fil28 str3" d="M2248.97 25030.93c553.31,7.97 1106.61,15.94 1383.26,20.02 276.65,4.09 276.66,4.3 276.66,4.51"/>
     <path class="fil28 str3" d="M4613.17 25056.21c62.84,-2.6 125.68,-5.2 196.56,-20.54 70.89,-15.35 149.83,-43.45 228.76,-71.56"/>
     <path class="fil28 str3" d="M4590.18 24886.14c84.52,-6.93 169.04,-13.85 244.28,-28.97 75.24,-15.13 141.2,-38.45 207.16,-61.77"/>
     <path class="fil28 str3" d="M3759.73 24505.66c8.86,182.41 17.7,364.81 22.14,456.02 4.42,91.2 4.42,91.2 4.42,91.2"/>
     <path class="fil28 str3" d="M2769.89 24438.96c-33.27,-3 -66.54,-6.01 -79.11,93.67 -12.58,99.7 -4.46,302.1 -0.4,403.29 4.06,101.2 4.06,101.2 4.06,101.2"/>
     <path class="fil28 str3" d="M4879.84 24846.85c-35.22,-53.36 -70.46,-106.72 -47.91,-138.66 22.55,-31.92 102.9,-42.43 143.06,-47.68 40.17,-5.25 40.17,-5.25 40.17,-5.25"/>
     <path class="fil28 str3" d="M1403.5 24370.97c70.15,30.19 140.31,60.38 165.87,97.86 25.56,37.49 6.53,82.26 -35.01,98.1 -41.54,15.85 -105.58,2.75 -169.63,-10.34"/>
     <path class="fil23" d="M3500.83 24001.52c92.16,21.75 248.37,103.78 364.68,175.41 116.3,71.62 192.72,132.81 230.83,164.16 38.1,31.33 37.88,32.8 -9.17,51.47 -47.06,18.66 -140.95,54.54 -186.11,69.38 -45.15,14.84 -41.59,8.66 -129.25,-59.87 -87.66,-68.54 -266.54,-199.43 -351.65,-267.37 -85.13,-67.93 -76.46,-72.9 -58.05,-94.65 18.41,-21.76 46.55,-60.29 138.72,-38.53z"/>
     <g>
      <ellipse class="fil23" cx="1898.04" cy="25001.78" rx="326.56" ry="316.42"/>
      <ellipse class="fil24" cx="1897.72" cy="25006.03" rx="175.37" ry="169.93"/>
     </g>
     <g>
      <ellipse class="fil23" cx="4263.72" cy="24999.96" rx="331.16" ry="320.88"/>
      <ellipse class="fil24" cx="4263.39" cy="25004.27" rx="177.85" ry="172.33"/>
     </g>
     <path class="fil28 str3" d="M1344.47 24840.05c46.53,58.21 69.14,93.63 204.59,118.21"/>
    </g>
    <g id="_2764468730544">
     <path class="fil20" d="M5037.74 21235.49c361.3,0 654.19,283.8 654.19,633.89 0,350.09 -292.89,633.89 -654.19,633.89 -361.3,0 -654.19,-283.8 -654.19,-633.89 0,-350.09 292.89,-633.89 654.19,-633.89z"/>
     <path class="fil29 str0" d="M4549.01 21963.57l108.78 -10.47c6.55,35.25 19.66,61.04 39.6,77.61 19.93,16.57 46.8,24.79 80.62,24.79 35.73,0 62.73,-7.35 80.86,-22.05 18.13,-14.7 27.26,-31.89 27.26,-51.58 0,-12.71 -3.87,-23.43 -11.46,-32.4 -7.57,-8.84 -20.95,-16.57 -39.98,-23.05 -12.98,-4.49 -42.55,-12.21 -88.84,-23.42 -59.53,-14.46 -101.32,-32.15 -125.36,-53.2 -33.81,-29.53 -50.65,-65.54 -50.65,-108.02 0,-27.28 7.97,-52.95 23.79,-76.74 15.94,-23.8 38.82,-41.86 68.79,-54.32 29.95,-12.46 65.95,-18.68 108.38,-18.68 69.04,0 121.11,14.82 155.96,44.6 34.97,29.78 53.23,69.4 55.03,119.11l-111.87 3.73c-4.75,-27.65 -14.91,-47.46 -30.47,-59.55 -15.55,-12.08 -38.96,-18.19 -70.07,-18.19 -32.14,0 -57.35,6.48 -75.48,19.44 -11.7,8.34 -17.61,19.43 -17.61,33.39 0,12.7 5.53,23.54 16.58,32.51 14.02,11.59 48.09,23.55 102.23,36.01 54.12,12.33 94.11,25.28 119.95,38.49 25.97,13.33 46.29,31.4 60.94,54.44 14.66,23.05 21.99,51.45 21.99,85.21 0,30.66 -8.74,59.42 -26.37,86.21 -17.61,26.79 -42.42,46.72 -74.56,59.68 -32.15,13.07 -72.26,19.55 -120.22,19.55 -69.82,0 -123.43,-15.57 -160.85,-46.83 -37.42,-31.15 -59.66,-76.62 -66.99,-136.29zm897.2 -23.92l108 32.14c-16.59,58.93 -44.23,102.66 -82.81,131.31 -38.57,28.52 -87.43,42.85 -146.7,42.85 -73.42,0 -133.72,-24.29 -181.04,-72.88 -47.18,-48.59 -70.84,-114.99 -70.84,-199.34 0,-89.07 23.78,-158.34 71.23,-207.68 47.44,-49.33 109.93,-73.99 187.33,-73.99 67.64,0 122.54,19.43 164.71,58.18 25.2,22.92 43.97,55.82 56.57,98.79l-110.32 25.42c-6.56,-27.65 -20.19,-49.59 -40.88,-65.65 -20.83,-16.08 -46.03,-24.05 -75.6,-24.05 -41.01,0 -74.31,14.2 -99.77,42.73 -25.58,28.41 -38.31,74.5 -38.31,138.28 0,67.53 12.6,115.73 37.67,144.39 25.2,28.78 57.86,43.11 98.09,43.11 29.71,0 55.3,-9.09 76.63,-27.41 21.34,-18.31 36.78,-46.97 46.04,-86.21z"/>
    </g>
   </g>
  </g>
  <polygon class="fil28" points="-0,0 12373.56,0 12373.56,25778.25 -0,25778.25 "/>
 </g>
</svg>
