<?xml version="1.0" encoding="UTF-8"?>
<!DOCTYPE svg PUBLIC "-//W3C//DTD SVG 1.0//EN" "http://www.w3.org/TR/2001/REC-SVG-20010904/DTD/svg10.dtd">
<!-- Creator: CorelDRAW 2021 (64-Bit) -->
<svg xmlns="http://www.w3.org/2000/svg" xml:space="preserve" width="36.0854mm" height="13.8155mm" version="1.0" style="shape-rendering:geometricPrecision; text-rendering:geometricPrecision; image-rendering:optimizeQuality; fill-rule:evenodd; clip-rule:evenodd"
viewBox="0 0 1273.51 487.57"
 xmlns:xlink="http://www.w3.org/1999/xlink"
 xmlns:xodm="http://www.corel.com/coreldraw/odm/2003">
 <defs>
  <style type="text/css">
   <![CDATA[
    .str0 {stroke:#0942AD;stroke-width:6.23;stroke-miterlimit:22.9256}
    .str1 {stroke:#0942AD;stroke-width:2.69;stroke-miterlimit:22.9256}
    .fil2 {fill:none}
    .fil1 {fill:#0942AD}
    .fil3 {fill:#F0FAFD}
    .fil0 {fill:#F2F9FF}
   ]]>
  </style>
 </defs>
 <g id="Capa_x0020_1">
  <metadata id="CorelCorpID_0Corel-Layer"/>
  <g id="_2446425941200">
   <path class="fil0 str0" d="M312.7 406.91c7.96,-76.51 -34.14,-128.51 -97.52,-140.75 -77.52,-11.12 -147.19,46.02 -141.58,121.61 -35.07,-11.59 -59.1,-23.31 -67.39,-55.7 -1.4,-5.46 -2.35,-11.53 -2.83,-18.26 -1.15,-16.09 1.36,-35.72 9.39,-59.66 -1.52,-31.62 -7.01,-69.37 18.78,-101.76 56.32,-47.26 97.6,-92.61 170.14,-136.79 111.88,-9.79 191.7,-9.99 288.14,-12.49 73.79,0.55 106.72,-3.53 224.06,20.72 75.63,27.63 165.87,67.11 247.16,140.12 73.79,2.34 143.21,13.06 216.11,39.68 30.56,12.93 113.6,-6.49 88.62,189.25 -10.3,13.51 -73.11,33.7 -145.04,32.56 38.28,-217.98 -262.67,-213.84 -237.18,-13.47 -192.62,-1.56 -378.23,-3.5 -570.85,-5.06z"/>
   <path class="fil1" d="M188.78 166.61c29.48,-35.71 51.22,-83.34 88.45,-107.13 53.23,-12.81 104.63,-11.49 158.32,-6.65l-0.34 133.19 -246.42 -19.41z"/>
   <path class="fil1" d="M614.62 74.19c74.95,34.3 145.35,89.78 218.03,134.67l-341.86 -23.23 0.21 -130.78c72.19,-2.75 96.55,8.77 123.63,19.33z"/>
   <path class="fil2 str1" d="M313.96 388.34c189.38,2.73 378.75,5.46 473.44,6.85 94.69,1.4 94.69,1.47 94.69,1.54"/>
   <path class="fil2 str1" d="M1123.14 396.99c21.51,-0.89 43.02,-1.78 67.28,-7.03 24.26,-5.25 51.28,-14.87 78.29,-24.49"/>
   <path class="fil2 str1" d="M1115.27 338.79c28.93,-2.37 57.86,-4.74 83.61,-9.92 25.75,-5.18 48.33,-13.16 70.9,-21.14"/>
   <path class="fil2 str1" d="M831.03 208.56c3.03,62.43 6.06,124.86 7.58,156.08 1.51,31.22 1.51,31.22 1.51,31.22"/>
   <path class="fil2 str1" d="M492.25 185.74c-11.39,-1.03 -22.77,-2.06 -27.08,32.06 -4.31,34.12 -1.53,103.4 -0.14,138.03 1.39,34.64 1.39,34.64 1.39,34.64"/>
   <path class="fil2 str1" d="M1214.41 325.34c-12.06,-18.26 -24.11,-36.53 -16.4,-47.46 7.72,-10.93 35.22,-14.52 48.96,-16.32 13.75,-1.8 13.75,-1.8 13.75,-1.8"/>
   <path class="fil2 str1" d="M24.59 162.46c24.01,10.33 48.02,20.67 56.77,33.5 8.75,12.83 2.23,28.16 -11.98,33.58 -14.22,5.42 -36.14,0.94 -58.06,-3.54"/>
   <path class="fil1" d="M742.42 36.02c31.54,7.44 85.01,35.52 124.82,60.03 39.81,24.51 65.96,45.46 79,56.18 13.04,10.72 12.97,11.23 -3.14,17.62 -16.11,6.39 -48.24,18.67 -63.7,23.75 -15.45,5.08 -14.23,2.96 -44.24,-20.49 -30,-23.46 -91.23,-68.26 -120.35,-91.51 -29.14,-23.25 -26.17,-24.95 -19.87,-32.39 6.3,-7.45 15.93,-20.63 47.48,-13.19z"/>
   <g>
    <ellipse class="fil1" cx="193.85" cy="378.37" rx="111.77" ry="108.3"/>
    <ellipse class="fil3" cx="193.74" cy="379.82" rx="60.02" ry="58.16"/>
   </g>
   <g>
    <ellipse class="fil1" cx="1003.53" cy="377.74" rx="113.34" ry="109.83"/>
    <ellipse class="fil3" cx="1003.42" cy="379.22" rx="60.87" ry="58.98"/>
   </g>
   <path class="fil2 str1" d="M4.39 323.01c15.93,19.92 23.66,32.04 70.02,40.46"/>
  </g>
 </g>
</svg>
