<?xml version="1.0" encoding="UTF-8"?>
<!DOCTYPE svg PUBLIC "-//W3C//DTD SVG 1.0//EN" "http://www.w3.org/TR/2001/REC-SVG-20010904/DTD/svg10.dtd">
<!-- Creator: CorelDRAW 2021 (64-Bit) -->
<svg xmlns="http://www.w3.org/2000/svg" xml:space="preserve" width="12.6888mm" height="12.295mm" version="1.0" style="shape-rendering:geometricPrecision; text-rendering:geometricPrecision; image-rendering:optimizeQuality; fill-rule:evenodd; clip-rule:evenodd"
viewBox="0 0 180.39 174.79"
 xmlns:xlink="http://www.w3.org/1999/xlink"
 xmlns:xodm="http://www.corel.com/coreldraw/odm/2003">
 <defs>
  <style type="text/css">
   <![CDATA[
    .str0 {stroke:#0942AD;stroke-width:2.51;stroke-miterlimit:22.9256}
    .fil0 {fill:#ABD4FF}
    .fil1 {fill:#FEFEFE;fill-rule:nonzero}
   ]]>
  </style>
 </defs>
 <g id="Capa_x0020_1">
  <metadata id="CorelCorpID_0Corel-Layer"/>
  <g id="_2068296651856">
   <path class="fil0" d="M90.19 0c49.81,0 90.19,39.13 90.19,87.4 0,48.27 -40.38,87.4 -90.19,87.4 -49.81,0 -90.19,-39.13 -90.19,-87.4 0,-48.27 40.38,-87.4 90.19,-87.4z"/>
   <path class="fil1 str0" d="M22.81 100.38l15 -1.44c0.9,4.86 2.71,8.42 5.46,10.7 2.75,2.28 6.45,3.42 11.12,3.42 4.93,0 8.65,-1.01 11.15,-3.04 2.5,-2.03 3.76,-4.4 3.76,-7.11 0,-1.75 -0.53,-3.23 -1.58,-4.47 -1.04,-1.22 -2.89,-2.28 -5.51,-3.18 -1.79,-0.62 -5.87,-1.68 -12.25,-3.23 -8.21,-1.99 -13.97,-4.43 -17.28,-7.33 -4.66,-4.07 -6.98,-9.04 -6.98,-14.89 0,-3.76 1.1,-7.3 3.28,-10.58 2.2,-3.28 5.35,-5.77 9.48,-7.49 4.13,-1.72 9.09,-2.58 14.94,-2.58 9.52,0 16.7,2.04 21.5,6.15 4.82,4.11 7.34,9.57 7.59,16.42l-15.42 0.51c-0.66,-3.81 -2.06,-6.54 -4.2,-8.21 -2.14,-1.67 -5.37,-2.51 -9.66,-2.51 -4.43,0 -7.91,0.89 -10.41,2.68 -1.61,1.15 -2.43,2.68 -2.43,4.6 0,1.75 0.76,3.25 2.29,4.48 1.93,1.6 6.63,3.25 14.09,4.96 7.46,1.7 12.98,3.49 16.54,5.31 3.58,1.84 6.38,4.33 8.4,7.51 2.02,3.18 3.03,7.09 3.03,11.75 0,4.23 -1.21,8.19 -3.64,11.89 -2.43,3.69 -5.85,6.44 -10.28,8.23 -4.43,1.8 -9.96,2.7 -16.57,2.7 -9.63,0 -17.02,-2.15 -22.18,-6.46 -5.16,-4.29 -8.23,-10.56 -9.24,-18.79zm74.98 23.91l0 -73.79 24.66 0c9.34,0 15.42,0.36 18.26,1.1 4.36,1.12 8.01,3.52 10.96,7.23 2.94,3.71 4.41,8.5 4.41,14.38 0,4.53 -0.85,8.33 -2.54,11.42 -1.7,3.09 -3.85,5.51 -6.45,7.28 -2.61,1.75 -5.26,2.92 -7.96,3.49 -3.67,0.7 -8.97,1.06 -15.92,1.06l-10 0 0 27.83 -15.42 0zm15.42 -61.32l0 21.02 8.38 0c6.04,0 10.07,-0.4 12.11,-1.17 2.04,-0.77 3.63,-1.98 4.79,-3.64 1.15,-1.65 1.74,-3.56 1.74,-5.75 0,-2.7 -0.82,-4.91 -2.43,-6.66 -1.63,-1.75 -3.67,-2.85 -6.17,-3.3 -1.83,-0.33 -5.5,-0.5 -11.03,-0.5l-7.39 0z"/>
  </g>
 </g>
</svg>
